<svg xmlns="http://www.w3.org/2000/svg" width="1334.6044921875" height="1496.998046875" viewBox="-646.0181274414062 -625.9261474609375 1334.6044921875 1496.998046875"><title>Neo4j Graph Visualization</title><desc>Created using Neo4j (http://www.neo4j.com/)</desc><g class="layer relationships"><g class="relationship" transform="translate(-617.0181232860125 -31.916779883120373) rotate(430.09821745958214)"><path class="outline" fill="#A5ABB6" stroke="none" d="M 25 0.5 L 25.17975252174209 0.5 L 25.17975252174209 -0.5 L 25 -0.5 Z M 71.04694002174209 0.5 L 71.22669254348418 0.5 L 71.22669254348418 3.5 L 78.22669254348418 0 L 71.22669254348418 -3.5 L 71.22669254348418 -0.5 L 71.04694002174209 -0.5 Z"/><text text-anchor="middle" pointer-events="none" font-size="8px" fill="#000000" x="48.11334627174209" y="3" font-family="sans-serif">TOKEN_…</text></g><g class="relationship" transform="translate(-595.6624873481934 337.2480974250668) rotate(397.0842148832376)"><path class="outline" fill="#A5ABB6" stroke="none" d="M 24.018736134675446,-6.953439040707552 L 24.277555179777966,-5.987513214418485 A 99.9625375478884 99.9625375478884 0 0 1 25.940428396734212,-6.417801175632164 L 25.69824431566669,-7.388031494101696 A 100.9625375478884 100.9625375478884 0 0 0 24.018736134675446,-6.953439040707552 Z M 71.38830348248338,-8.13450257551365 L 71.17794288434109,-7.156878711878349 A 99.9625375478884 99.9625375478884 0 0 1 72.85398471776384,-6.78114098705851 L 72.17260282468395,-3.8595457522967074 L 79.78460391438803,-5.678182442332405 L 73.76249390853702,-10.676601300074246 L 73.08111201545714,-7.755006065312443 A 100.9625375478884 100.9625375478884 0 0 0 71.38830348248338,-8.13450257551365"/><text text-anchor="middle" pointer-events="none" font-size="8px" fill="#000000" x="48.50865457963052" y="-6.88024899288007" font-family="sans-serif">TOKEN_…</text></g><g class="relationship" transform="translate(-512.5917892033755 400.0380038781517) rotate(217.08421488323762)"><path class="outline" fill="#A5ABB6" stroke="none" d="M 24.018736134675446,-6.953439040707552 L 24.277555179777966,-5.987513214418485 A 99.9625375478884 99.9625375478884 0 0 1 25.940428396734212,-6.417801175632164 L 25.69824431566669,-7.388031494101696 A 100.9625375478884 100.9625375478884 0 0 0 24.018736134675446,-6.953439040707552 Z M 71.38830348248338,-8.13450257551365 L 71.17794288434109,-7.156878711878349 A 99.9625375478884 99.9625375478884 0 0 1 72.85398471776384,-6.78114098705851 L 72.17260282468395,-3.8595457522967074 L 79.78460391438803,-5.678182442332405 L 73.76249390853702,-10.676601300074246 L 73.08111201545714,-7.755006065312443 A 100.9625375478884 100.9625375478884 0 0 0 71.38830348248338,-8.13450257551365"/><text text-anchor="middle" pointer-events="none" font-size="8px" fill="#000000" x="48.50865457963052" y="-6.88024899288007" transform="rotate(180 48.50865457963052 -9.88024899288007)" font-family="sans-serif">TOKEN_…</text></g><g class="relationship" transform="translate(-512.5917892033755 400.0380038781517) rotate(443.35902551628476)"><path class="outline" fill="#A5ABB6" stroke="none" d="M 25 0.5 L 26.746493736614582 0.5 L 26.746493736614582 -0.5 L 25 -0.5 Z M 72.61368123661458 0.5 L 74.36017497322916 0.5 L 74.36017497322916 3.5 L 81.36017497322916 0 L 74.36017497322916 -3.5 L 74.36017497322916 -0.5 L 72.61368123661458 -0.5 Z"/><text text-anchor="middle" pointer-events="none" font-size="8px" fill="#000000" x="49.68008748661458" y="3" font-family="sans-serif">TOKEN_…</text></g><g class="relationship" transform="translate(-271.1463635785513 725.5295896628558) rotate(218.87814493479334)"><path class="outline" fill="#A5ABB6" stroke="none" d="M 25 0.5 L 26.134677000930353 0.5 L 26.134677000930353 -0.5 L 25 -0.5 Z M 72.00186450093035 0.5 L 73.1365415018607 0.5 L 73.1365415018607 3.5 L 80.1365415018607 0 L 73.1365415018607 -3.5 L 73.1365415018607 -0.5 L 72.00186450093035 -0.5 Z"/><text text-anchor="middle" pointer-events="none" font-size="8px" fill="#000000" x="49.06827075093035" y="3" transform="rotate(180 49.06827075093035 0)" font-family="sans-serif">TOKEN_…</text></g><g class="relationship" transform="translate(173.19076194126657 842.0718752210911) rotate(180)"><path class="outline" fill="#A5ABB6" stroke="none" d="M 6.953439040707552 24.018736134675446 L 17.306200844808384 62.65576918623819 A 17.916697508022974 17.916697508022974 0 1 1 -17.306200844808384 62.65576918623819 L -8.765172356425198 30.780216918698923 L -4.901469051268926 31.815493099109005 L -6.4704761275630185 24.148145657226706 L -11.662949835292403 30.00375978339136 L -7.79924653013613 31.039035963801442 L -16.340275018519314 62.91458823134071 A 16.916697508022974 16.916697508022974 0 1 0 16.340275018519314 62.91458823134071 L 5.987513214418485 24.277555179777966 Z"/><text text-anchor="middle" pointer-events="none" font-size="8px" fill="#000000" x="0" y="94.20964923467838" transform="rotate(180 0 91.20964923467838)" font-family="sans-serif">TOKEN_T…</text></g><g class="relationship" transform="translate(464.8197812599773 793.7565685494276) rotate(308.34323025504784)"><path class="outline" fill="#A5ABB6" stroke="none" d="M 25 0.5 L 25.259477503519847 0.5 L 25.259477503519847 -0.5 L 25 -0.5 Z M 76.01338375351985 0.5 L 76.2728612570397 0.5 L 76.2728612570397 3.5 L 83.2728612570397 0 L 76.2728612570397 -3.5 L 76.2728612570397 -0.5 L 76.01338375351985 -0.5 Z"/><text text-anchor="middle" pointer-events="none" font-size="8px" fill="#000000" x="50.63643062851985" y="3" font-family="sans-serif">TOKEN_T…</text></g><g class="relationship" transform="translate(531.9891219987697 708.8372412469686) rotate(185.4334022741274)"><path class="outline" fill="#A5ABB6" stroke="none" d="M 25 0.5 L 27.07265390276413 0.5 L 27.07265390276413 -0.5 L 25 -0.5 Z M 77.82656015276413 0.5 L 79.89921405552826 0.5 L 79.89921405552826 3.5 L 86.89921405552826 0 L 79.89921405552826 -3.5 L 79.89921405552826 -0.5 L 77.82656015276413 -0.5 Z"/><text text-anchor="middle" pointer-events="none" font-size="8px" fill="#000000" x="52.44960702776413" y="3" transform="rotate(180 52.44960702776413 0)" font-family="sans-serif">TOKEN_T…</text></g><g class="relationship" transform="translate(127.92748327527653 350.37784937499237) rotate(274.34506414858225)"><path class="outline" fill="#A5ABB6" stroke="none" d="M 12.066987298107785,-21.900635094610966 L 12.933012701892222,-21.400635094610966 A 128.026987822106 128.026987822106 0 0 1 81.23102622150861,-78.12711743746914 L 80.89846657116763,-79.0701996602711 A 129.026987822106 129.026987822106 0 0 0 12.066987298107785,-21.900635094610966 Z M 160.83292485894827,-80.98767358652077 L 160.5459671537575,-80.02973033380084 A 128.026987822106 128.026987822106 0 0 1 231.48537801718132,-26.643286023745187 L 228.96221294105777,-25.02043729430967 L 235.6925525652181,-21.026375634362836 L 234.84959811867935,-28.807084329659208 L 232.3264330425558,-27.18423560022369 A 129.026987822106 129.026987822106 0 0 0 160.83292485894827,-80.98767358652077"/><text text-anchor="middle" pointer-events="none" font-size="8px" fill="#000000" x="120.72540794058827" y="-82.87716595424611" font-family="sans-serif">TOKEN_TRANSFER</text></g><g class="relationship" transform="translate(127.92748327527653 350.37784937499237) rotate(274.34506414858225)"><path class="outline" fill="#A5ABB6" stroke="none" d="M 21.40063509461097,-12.933012701892217 L 21.90063509461097,-12.06698729810778 A 203.81400286245196 203.81400286245196 0 0 1 80.94468522923994,-34.814786896463886 L 80.73438097784106,-35.792422882832824 A 204.81400286245196 204.81400286245196 0 0 0 21.40063509461097,-12.933012701892217 Z M 161.37512235039958,-36.89804920149962 L 161.1916999022294,-35.915015018214376 A 203.81400286245196 203.81400286245196 0 0 1 220.83720719773473,-14.79451070772561 L 219.4089995774166,-12.156287253720008 L 227.23109652713416,-11.9017301693176 L 222.74148402482555,-18.31214197973308 L 221.31327640450743,-15.67391852572748 A 204.81400286245196 204.81400286245196 0 0 0 161.37512235039958,-36.89804920149962"/><text text-anchor="middle" pointer-events="none" font-size="8px" fill="#000000" x="121.00664900622624" y="-36.85368544236377" font-family="sans-serif">TOKEN_TRANSFER</text></g><g class="relationship" transform="translate(127.92748327527653 350.37784937499237) rotate(274.34506414858225)"><path class="outline" fill="#A5ABB6" stroke="none" d="M 25 0.5 L 80.61791161359037 0.5 L 80.61791161359037 -0.5 L 25 -0.5 Z M 161.59838036359037 0.5 L 217.21629197718073 0.5 L 217.21629197718073 3.5 L 224.21629197718073 0 L 217.21629197718073 -3.5 L 217.21629197718073 -0.5 L 161.59838036359037 -0.5 Z"/><text text-anchor="middle" pointer-events="none" font-size="8px" fill="#000000" x="121.10814598859037" y="3" font-family="sans-serif">TOKEN_TRANSFER</text></g><g class="relationship" transform="translate(127.92748327527653 350.37784937499237) rotate(274.34506414858225)"><path class="outline" fill="#A5ABB6" stroke="none" d="M 21.40063509461097,12.933012701892217 L 21.90063509461097,12.06698729810778 A 203.81400286245196 203.81400286245196 0 0 0 80.94468522924001,34.814786896463914 L 80.73438097784114,35.79242288283285 A 204.81400286245196 204.81400286245196 0 0 1 21.40063509461097,12.933012701892217 Z M 161.37512235039955,36.89804920149962 L 161.1916999022294,35.915015018214376 A 203.81400286245196 203.81400286245196 0 0 0 220.83720719773473,14.79451070772561 L 219.4089995774166,12.156287253720008 L 227.23109652713416,11.9017301693176 L 222.74148402482555,18.31214197973308 L 221.31327640450743,15.67391852572748 A 204.81400286245196 204.81400286245196 0 0 1 161.37512235039955,36.89804920149962"/><text text-anchor="middle" pointer-events="none" font-size="8px" fill="#000000" x="121.00664900622627" y="42.85368544236377" font-family="sans-serif">TOKEN_TRANSFER</text></g><g class="relationship" transform="translate(127.92748327527653 350.37784937499237) rotate(274.34506414858225)"><path class="outline" fill="#A5ABB6" stroke="none" d="M 12.066987298107785,21.900635094610966 L 12.933012701892222,21.400635094610966 A 128.026987822106 128.026987822106 0 0 0 81.23102622150864,78.12711743746915 L 80.89846657116767,79.07019966027111 A 129.026987822106 129.026987822106 0 0 1 12.066987298107785,21.900635094610966 Z M 160.8329248589483,80.98767358652077 L 160.54596715375752,80.02973033380084 A 128.026987822106 128.026987822106 0 0 0 231.48537801718132,26.643286023745187 L 228.96221294105777,25.02043729430967 L 235.6925525652181,21.026375634362836 L 234.84959811867935,28.807084329659208 L 232.3264330425558,27.18423560022369 A 129.026987822106 129.026987822106 0 0 1 160.8329248589483,80.98767358652077"/><text text-anchor="middle" pointer-events="none" font-size="8px" fill="#000000" x="120.72540794058828" y="88.87716595424611" font-family="sans-serif">TOKEN_TRANSFER</text></g><g class="relationship" transform="translate(127.92748327527653 350.37784937499237) rotate(336.32324951932947)"><path class="outline" fill="#A5ABB6" stroke="none" d="M 25 0.5 L 45.71942762892343 0.5 L 45.71942762892343 -0.5 L 25 -0.5 Z M 126.69989637892343 0.5 L 147.41932400784685 0.5 L 147.41932400784685 3.5 L 154.41932400784685 0 L 147.41932400784685 -3.5 L 147.41932400784685 -0.5 L 126.69989637892343 -0.5 Z"/><text text-anchor="middle" pointer-events="none" font-size="8px" fill="#000000" x="86.20966200392343" y="3" font-family="sans-serif">TOKEN_TRANSFER</text></g><g class="relationship" transform="translate(127.92748327527653 350.37784937499237) rotate(449.0310684265236)"><path class="outline" fill="#A5ABB6" stroke="none" d="M 25 0.5 L 28.277126756869208 0.5 L 28.277126756869208 -0.5 L 25 -0.5 Z M 109.25759550686921 0.5 L 112.53472226373842 0.5 L 112.53472226373842 3.5 L 119.53472226373842 0 L 112.53472226373842 -3.5 L 112.53472226373842 -0.5 L 109.25759550686921 -0.5 Z"/><text text-anchor="middle" pointer-events="none" font-size="8px" fill="#000000" x="68.76736113186921" y="3" font-family="sans-serif">TOKEN_TRANSFER</text></g><g class="relationship" transform="translate(127.92748327527653 350.37784937499237) rotate(215.57959915590334)"><path class="outline" fill="#A5ABB6" stroke="none" d="M 25 0.5 L 25.32486258054344 0.5 L 25.32486258054344 -0.5 L 25 -0.5 Z M 81.85611258054344 0.5 L 82.18097516108688 0.5 L 82.18097516108688 3.5 L 89.18097516108688 0 L 82.18097516108688 -3.5 L 82.18097516108688 -0.5 L 81.85611258054344 -0.5 Z"/><text text-anchor="middle" pointer-events="none" font-size="8px" fill="#000000" x="53.59048758054344" y="3" transform="rotate(180 53.59048758054344 0)" font-family="sans-serif">TOKEN_TR…</text></g><g class="relationship" transform="translate(130.37160013856334 494.89190485962195) rotate(481.4580060319947)"><path class="outline" fill="#A5ABB6" stroke="none" d="M 25 0.5 L 26.94537266318885 0.5 L 26.94537266318885 -0.5 L 25 -0.5 Z M 94.58990391318885 0.5 L 96.5352765763777 0.5 L 96.5352765763777 3.5 L 103.5352765763777 0 L 96.5352765763777 -3.5 L 96.5352765763777 -0.5 L 94.58990391318885 -0.5 Z"/><text text-anchor="middle" pointer-events="none" font-size="8px" fill="#000000" x="60.76763828818885" y="3" transform="rotate(180 60.76763828818885 0)" font-family="sans-serif">TOKEN_TRAN…</text></g><g class="relationship" transform="translate(292.24429702958713 278.3273216526784) rotate(333.29235299962363)"><path class="outline" fill="#A5ABB6" stroke="none" d="M 25 0.5 L 63.571451227574855 0.5 L 63.571451227574855 -0.5 L 25 -0.5 Z M 144.55191997757487 0.5 L 183.1233712051497 0.5 L 183.1233712051497 3.5 L 190.1233712051497 0 L 183.1233712051497 -3.5 L 183.1233712051497 -0.5 L 144.55191997757487 -0.5 Z"/><text text-anchor="middle" pointer-events="none" font-size="8px" fill="#000000" x="104.06168560257485" y="3" font-family="sans-serif">TOKEN_TRANSFER</text></g><g class="relationship" transform="translate(-104.81635042687806 457.0069637915362) rotate(328.207458914331)"><path class="outline" fill="#A5ABB6" stroke="none" d="M 25 0.5 L 25.22577391015055 0.5 L 25.22577391015055 -0.5 L 25 -0.5 Z M 92.87030516015055 0.5 L 93.0960790703011 0.5 L 93.0960790703011 3.5 L 100.0960790703011 0 L 93.0960790703011 -3.5 L 93.0960790703011 -0.5 L 92.87030516015055 -0.5 Z"/><text text-anchor="middle" pointer-events="none" font-size="8px" fill="#000000" x="59.04803953515055" y="3" font-family="sans-serif">TOKEN_TRAN…</text></g><g class="relationship" transform="translate(1.510473846754525 391.100701276908) rotate(342.1446352333446)"><path class="outline" fill="#A5ABB6" stroke="none" d="M 25 0.5 L 26.416864153463763 0.5 L 26.416864153463763 -0.5 L 25 -0.5 Z M 99.39733290346376 0.5 L 100.81419705692753 0.5 L 100.81419705692753 3.5 L 107.81419705692753 0 L 100.81419705692753 -3.5 L 100.81419705692753 -0.5 L 99.39733290346376 -0.5 Z"/><text text-anchor="middle" pointer-events="none" font-size="8px" fill="#000000" x="62.90709852846376" y="3" font-family="sans-serif">TOKEN_TRANS…</text></g><g class="relationship" transform="translate(-57.41018043916701 790.6058675403616) rotate(312.44284002658435)"><path class="outline" fill="#A5ABB6" stroke="none" d="M 25 0.5 L 25.493802293348544 0.5 L 25.493802293348544 -0.5 L 25 -0.5 Z M 76.24770854334855 0.5 L 76.74151083669709 0.5 L 76.74151083669709 3.5 L 83.74151083669709 0 L 76.74151083669709 -3.5 L 76.74151083669709 -0.5 L 76.24770854334855 -0.5 Z"/><text text-anchor="middle" pointer-events="none" font-size="8px" fill="#000000" x="50.870755418348544" y="3" font-family="sans-serif">TOKEN_T…</text></g><g class="relationship" transform="translate(15.974500277085223 710.3599653694642) rotate(294.09113296845464)"><path class="outline" fill="#A5ABB6" stroke="none" d="M 25 0.5 L 26.19517757062534 0.5 L 26.19517757062534 -0.5 L 25 -0.5 Z M 82.72642757062533 0.5 L 83.92160514125068 0.5 L 83.92160514125068 3.5 L 90.92160514125068 0 L 83.92160514125068 -3.5 L 83.92160514125068 -0.5 L 82.72642757062533 -0.5 Z"/><text text-anchor="middle" pointer-events="none" font-size="8px" fill="#000000" x="54.46080257062534" y="3" font-family="sans-serif">TOKEN_TR…</text></g><g class="relationship" transform="translate(63.292445952337765 604.5354381765782) rotate(270.926431979192)"><path class="outline" fill="#A5ABB6" stroke="none" d="M 24.018736134675446,-6.953439040707552 L 24.277555179777966,-5.987513214418485 A 142.5983527305947 142.5983527305947 0 0 1 25.89854106354587,-6.411663732416116 L 25.651089512195753,-7.38056400062456 A 143.5983527305947 143.5983527305947 0 0 0 24.018736134675446,-6.953439040707552 Z M 92.8954143135661,-8.301353779685826 L 92.67458525080968,-7.326041252829867 A 142.5983527305947 142.5983527305947 0 0 1 94.30657714250621,-6.946434399981808 L 93.6097559273612,-4.028483030592005 L 101.23126720693993,-5.806843459541751 L 95.2356720960329,-10.83703622583488 L 94.53885088088789,-7.919084856445076 A 143.5983527305947 143.5983527305947 0 0 0 92.8954143135661,-8.301353779685826"/><text text-anchor="middle" pointer-events="none" font-size="8px" fill="#000000" x="59.225434426926405" y="-8.333020411503838" font-family="sans-serif">TOKEN_TRAN…</text></g><g class="relationship" transform="translate(63.292445952337765 604.5354381765782) rotate(270.926431979192)"><path class="outline" fill="#A5ABB6" stroke="none" d="M 24.018736134675446,6.953439040707552 L 24.277555179777966,5.987513214418485 A 142.5983527305947 142.5983527305947 0 0 0 25.898541063545863,6.411663732416116 L 25.651089512195746,7.38056400062456 A 143.5983527305947 143.5983527305947 0 0 1 24.018736134675446,6.953439040707552 Z M 92.89541431356615,8.301353779685797 L 92.67458525080973,7.326041252829867 A 142.5983527305947 142.5983527305947 0 0 0 94.30657714250621,6.946434399981808 L 93.6097559273612,4.028483030592005 L 101.23126720693993,5.806843459541751 L 95.2356720960329,10.83703622583488 L 94.53885088088789,7.919084856445076 A 143.5983527305947 143.5983527305947 0 0 1 92.89541431356615,8.301353779685797"/><text text-anchor="middle" pointer-events="none" font-size="8px" fill="#000000" x="59.22543442692643" y="14.333020411503838" font-family="sans-serif">TOKEN_TRAN…</text></g><g class="relationship" transform="translate(65.32237168670464 479.00432114286633) rotate(295.9531260415065)"><path class="outline" fill="#A5ABB6" stroke="none" d="M 25 0.5 L 27.536280352877696 0.5 L 27.536280352877696 -0.5 L 25 -0.5 Z M 108.5167491028777 0.5 L 111.0530294557554 0.5 L 111.0530294557554 3.5 L 118.0530294557554 0 L 111.0530294557554 -3.5 L 111.0530294557554 -0.5 L 108.5167491028777 -0.5 Z"/><text text-anchor="middle" pointer-events="none" font-size="8px" fill="#000000" x="68.0265147278777" y="3" font-family="sans-serif">TOKEN_TRANSFER</text></g><g class="relationship" transform="translate(388.74800864647256 271.6134705650211) rotate(316.7579685493313)"><path class="outline" fill="#A5ABB6" stroke="none" d="M 25 0.5 L 25.67406373652814 0.5 L 25.67406373652814 -0.5 L 25 -0.5 Z M 98.65453248652814 0.5 L 99.32859622305628 0.5 L 99.32859622305628 3.5 L 106.32859622305628 0 L 99.32859622305628 -3.5 L 99.32859622305628 -0.5 L 98.65453248652814 -0.5 Z"/><text text-anchor="middle" pointer-events="none" font-size="8px" fill="#000000" x="62.16429811152814" y="3" font-family="sans-serif">TOKEN_TRANS…</text></g><g class="relationship" transform="translate(469.9418422735174 301.7060047633179) rotate(276.87429786796497)"><path class="outline" fill="#A5ABB6" stroke="none" d="M 25 0.5 L 26.032765827087573 0.5 L 26.032765827087573 -0.5 L 25 -0.5 Z M 87.89995332708757 0.5 L 88.93271915417515 0.5 L 88.93271915417515 3.5 L 95.93271915417515 0 L 88.93271915417515 -3.5 L 88.93271915417515 -0.5 L 87.89995332708757 -0.5 Z"/><text text-anchor="middle" pointer-events="none" font-size="8px" fill="#000000" x="56.96635957708757" y="3" font-family="sans-serif">TOKEN_TRA…</text></g><g class="relationship" transform="translate(607.0014013156292 120.37305213693382) rotate(513.4435003169007)"><path class="outline" fill="#A5ABB6" stroke="none" d="M 25 0.5 L 26.088359241072027 0.5 L 26.088359241072027 -0.5 L 25 -0.5 Z M 103.95554674107203 0.5 L 105.04390598214405 0.5 L 105.04390598214405 3.5 L 112.04390598214405 0 L 105.04390598214405 -3.5 L 105.04390598214405 -0.5 L 103.95554674107203 -0.5 Z"/><text text-anchor="middle" pointer-events="none" font-size="8px" fill="#000000" x="65.02195299107203" y="3" transform="rotate(180 65.02195299107203 0)" font-family="sans-serif">TOKEN_TRANSF…</text></g><g class="relationship" transform="translate(646.1426746474381 234.93259337487783) rotate(198.23741933939243)"><path class="outline" fill="#A5ABB6" stroke="none" d="M 25 0.5 L 41.14963030416048 0.5 L 41.14963030416048 -0.5 L 25 -0.5 Z M 122.13009905416048 0.5 L 138.27972935832096 0.5 L 138.27972935832096 3.5 L 145.27972935832096 0 L 138.27972935832096 -3.5 L 138.27972935832096 -0.5 L 122.13009905416048 -0.5 Z"/><text text-anchor="middle" pointer-events="none" font-size="8px" fill="#000000" x="81.63986467916048" y="3" transform="rotate(180 81.63986467916048 0)" font-family="sans-serif">TOKEN_TRANSFER</text></g><g class="relationship" transform="translate(562.8316547225758 51.833073587646965) rotate(481.1352774253619)"><path class="outline" fill="#A5ABB6" stroke="none" d="M 25 0.5 L 31.837646716519785 0.5 L 31.837646716519785 -0.5 L 25 -0.5 Z M 112.81811546651979 0.5 L 119.65576218303957 0.5 L 119.65576218303957 3.5 L 126.65576218303957 0 L 119.65576218303957 -3.5 L 119.65576218303957 -0.5 L 112.81811546651979 -0.5 Z"/><text text-anchor="middle" pointer-events="none" font-size="8px" fill="#000000" x="72.32788109151979" y="3" transform="rotate(180 72.32788109151979 0)" font-family="sans-serif">TOKEN_TRANSFER</text></g><g class="relationship" transform="translate(611.4002990219066 184.94769831307616) rotate(181.49091652935283)"><path class="outline" fill="#A5ABB6" stroke="none" d="M 25 0.5 L 26.191155823779567 0.5 L 26.191155823779567 -0.5 L 25 -0.5 Z M 93.83568707377957 0.5 L 95.02684289755913 0.5 L 95.02684289755913 3.5 L 102.02684289755913 0 L 95.02684289755913 -3.5 L 95.02684289755913 -0.5 L 93.83568707377957 -0.5 Z"/><text text-anchor="middle" pointer-events="none" font-size="8px" fill="#000000" x="60.01342144877957" y="3" transform="rotate(180 60.01342144877957 0)" font-family="sans-serif">TOKEN_TRAN…</text></g><g class="relationship" transform="translate(545.7371265881465 310.5287275225299) rotate(244.55610067126815)"><path class="outline" fill="#A5ABB6" stroke="none" d="M 25 0.5 L 27.374749985377548 0.5 L 27.374749985377548 -0.5 L 25 -0.5 Z M 108.35521873537755 0.5 L 110.7299687207551 0.5 L 110.7299687207551 3.5 L 117.7299687207551 0 L 110.7299687207551 -3.5 L 110.7299687207551 -0.5 L 108.35521873537755 -0.5 Z"/><text text-anchor="middle" pointer-events="none" font-size="8px" fill="#000000" x="67.86498436037755" y="3" transform="rotate(180 67.86498436037755 0)" font-family="sans-serif">TOKEN_TRANSFER</text></g><g class="relationship" transform="translate(659.5862154439405 149.21364340491434) rotate(529.5116324251458)"><path class="outline" fill="#A5ABB6" stroke="none" d="M 25 0.5 L 45.08288752339833 0.5 L 45.08288752339833 -0.5 L 25 -0.5 Z M 126.06335627339833 0.5 L 146.14624379679665 0.5 L 146.14624379679665 3.5 L 153.14624379679665 0 L 146.14624379679665 -3.5 L 146.14624379679665 -0.5 L 126.06335627339833 -0.5 Z"/><text text-anchor="middle" pointer-events="none" font-size="8px" fill="#000000" x="85.57312189839833" y="3" transform="rotate(180 85.57312189839833 0)" font-family="sans-serif">TOKEN_TRANSFER</text></g><g class="relationship" transform="translate(415.74229826538175 327.4050541830563) rotate(295.2268922824263)"><path class="outline" fill="#A5ABB6" stroke="none" d="M 25 0.5 L 36.57467347941498 0.5 L 36.57467347941498 -0.5 L 25 -0.5 Z M 117.55514222941498 0.5 L 129.12981570882997 0.5 L 129.12981570882997 3.5 L 136.12981570882997 0 L 129.12981570882997 -3.5 L 129.12981570882997 -0.5 L 117.55514222941498 -0.5 Z"/><text text-anchor="middle" pointer-events="none" font-size="8px" fill="#000000" x="77.06490785441498" y="3" font-family="sans-serif">TOKEN_TRANSFER</text></g><g class="relationship" transform="translate(585.665525087531 249.59257958825543) rotate(213.86621613257114)"><path class="outline" fill="#A5ABB6" stroke="none" d="M 25 0.5 L 26.53477012037554 0.5 L 26.53477012037554 -0.5 L 25 -0.5 Z M 88.40195762037554 0.5 L 89.93672774075108 0.5 L 89.93672774075108 3.5 L 96.93672774075108 0 L 89.93672774075108 -3.5 L 89.93672774075108 -0.5 L 88.40195762037554 -0.5 Z"/><text text-anchor="middle" pointer-events="none" font-size="8px" fill="#000000" x="57.46836387037554" y="3" transform="rotate(180 57.46836387037554 0)" font-family="sans-serif">TOKEN_TRA…</text></g><g class="relationship" transform="translate(605.5741207062795 306.1749504935119) rotate(225.7869273964492)"><path class="outline" fill="#A5ABB6" stroke="none" d="M 25 0.5 L 42.88247646965303 0.5 L 42.88247646965303 -0.5 L 25 -0.5 Z M 123.86294521965303 0.5 L 141.74542168930606 0.5 L 141.74542168930606 3.5 L 148.74542168930606 0 L 141.74542168930606 -3.5 L 141.74542168930606 -0.5 L 123.86294521965303 -0.5 Z"/><text text-anchor="middle" pointer-events="none" font-size="8px" fill="#000000" x="83.37271084465303" y="3" transform="rotate(180 83.37271084465303 0)" font-family="sans-serif">TOKEN_TRANSFER</text></g><g class="relationship" transform="translate(495.64404479167536 63.43793816445019) rotate(455.4259176586351)"><path class="outline" fill="#A5ABB6" stroke="none" d="M 25 0.5 L 27.602745561983816 0.5 L 27.602745561983816 -0.5 L 25 -0.5 Z M 84.13399556198382 0.5 L 86.73674112396763 0.5 L 86.73674112396763 3.5 L 93.73674112396763 0 L 86.73674112396763 -3.5 L 86.73674112396763 -0.5 L 84.13399556198382 -0.5 Z"/><text text-anchor="middle" pointer-events="none" font-size="8px" fill="#000000" x="55.86837056198382" y="3" transform="rotate(180 55.86837056198382 0)" font-family="sans-serif">TOKEN_TR…</text></g><g class="relationship" transform="translate(520.7774153098009 1.6968315285087776) rotate(461.4237144605924)"><path class="outline" fill="#A5ABB6" stroke="none" d="M 25 0.5 L 47.801130142690425 0.5 L 47.801130142690425 -0.5 L 25 -0.5 Z M 128.78159889269043 0.5 L 151.58272903538085 0.5 L 151.58272903538085 3.5 L 158.58272903538085 0 L 151.58272903538085 -3.5 L 151.58272903538085 -0.5 L 128.78159889269043 -0.5 Z"/><text text-anchor="middle" pointer-events="none" font-size="8px" fill="#000000" x="88.29136451769043" y="3" transform="rotate(180 88.29136451769043 0)" font-family="sans-serif">TOKEN_TRANSFER</text></g><g class="relationship" transform="translate(502.4801226385046 352.0940444808215) rotate(263.950632817801)"><path class="outline" fill="#A5ABB6" stroke="none" d="M 25 0.5 L 41.71270050879309 0.5 L 41.71270050879309 -0.5 L 25 -0.5 Z M 122.69316925879309 0.5 L 139.40586976758618 0.5 L 139.40586976758618 3.5 L 146.40586976758618 0 L 139.40586976758618 -3.5 L 139.40586976758618 -0.5 L 122.69316925879309 -0.5 Z"/><text text-anchor="middle" pointer-events="none" font-size="8px" fill="#000000" x="82.20293488379309" y="3" transform="rotate(180 82.20293488379309 0)" font-family="sans-serif">TOKEN_TRANSFER</text></g><g class="relationship" transform="translate(418.9745586263122 39.98407549860136) rotate(425.2045171192341)"><path class="outline" fill="#A5ABB6" stroke="none" d="M 25 0.5 L 34.03187060327704 0.5 L 34.03187060327704 -0.5 L 25 -0.5 Z M 115.01233935327704 0.5 L 124.04420995655408 0.5 L 124.04420995655408 3.5 L 131.04420995655408 0 L 124.04420995655408 -3.5 L 124.04420995655408 -0.5 L 115.01233935327704 -0.5 Z"/><text text-anchor="middle" pointer-events="none" font-size="8px" fill="#000000" x="74.52210497827704" y="3" font-family="sans-serif">TOKEN_TRANSFER</text></g><g class="relationship" transform="translate(621.8599084859347 62.296148252736934) rotate(499.03118165417436)"><path class="outline" fill="#A5ABB6" stroke="none" d="M 25 0.5 L 47.0238995331148 0.5 L 47.0238995331148 -0.5 L 25 -0.5 Z M 128.0043682831148 0.5 L 150.0282678162296 0.5 L 150.0282678162296 3.5 L 157.0282678162296 0 L 150.0282678162296 -3.5 L 150.0282678162296 -0.5 L 128.0043682831148 -0.5 Z"/><text text-anchor="middle" pointer-events="none" font-size="8px" fill="#000000" x="87.5141339081148" y="3" transform="rotate(180 87.5141339081148 0)" font-family="sans-serif">TOKEN_TRANSFER</text></g><g class="relationship" transform="translate(409.0997777888819 99.15223943752817) rotate(407.60280994064425)"><path class="outline" fill="#A5ABB6" stroke="none" d="M 25 0.5 L 26.973899954109186 0.5 L 26.973899954109186 -0.5 L 25 -0.5 Z M 77.72780620410919 0.5 L 79.70170615821837 0.5 L 79.70170615821837 3.5 L 86.70170615821837 0 L 79.70170615821837 -3.5 L 79.70170615821837 -0.5 L 77.72780620410919 -0.5 Z"/><text text-anchor="middle" pointer-events="none" font-size="8px" fill="#000000" x="52.350853079109186" y="3" font-family="sans-serif">TOKEN_T…</text></g><g class="relationship" transform="translate(468.3232960911886 -17.181331223847295) rotate(445.37246702521304)"><path class="outline" fill="#A5ABB6" stroke="none" d="M 25 0.5 L 55.7468792073344 0.5 L 55.7468792073344 -0.5 L 25 -0.5 Z M 136.72734795733442 0.5 L 167.4742271646688 0.5 L 167.4742271646688 3.5 L 174.4742271646688 0 L 167.4742271646688 -3.5 L 167.4742271646688 -0.5 L 136.72734795733442 -0.5 Z"/><text text-anchor="middle" pointer-events="none" font-size="8px" fill="#000000" x="96.2371135823344" y="3" font-family="sans-serif">TOKEN_TRANSFER</text></g><g class="relationship" transform="translate(350.41092778358984 86.87410930235009) rotate(395.2679027443346)"><path class="outline" fill="#A5ABB6" stroke="none" d="M 25 0.5 L 38.07461761894014 0.5 L 38.07461761894014 -0.5 L 25 -0.5 Z M 119.05508636894014 0.5 L 132.12970398788028 0.5 L 132.12970398788028 3.5 L 139.12970398788028 0 L 132.12970398788028 -3.5 L 132.12970398788028 -0.5 L 119.05508636894014 -0.5 Z"/><text text-anchor="middle" pointer-events="none" font-size="8px" fill="#000000" x="78.56485199394014" y="3" font-family="sans-serif">TOKEN_TRANSFER</text></g><g class="relationship" transform="translate(344.27767929532195 152.2418475717006) rotate(371.84868255283226)"><path class="outline" fill="#A5ABB6" stroke="none" d="M 25 0.5 L 27.60460687645289 0.5 L 27.60460687645289 -0.5 L 25 -0.5 Z M 108.58507562645289 0.5 L 111.18968250290578 0.5 L 111.18968250290578 3.5 L 118.18968250290578 0 L 111.18968250290578 -3.5 L 111.18968250290578 -0.5 L 108.58507562645289 -0.5 Z"/><text text-anchor="middle" pointer-events="none" font-size="8px" fill="#000000" x="68.09484125145289" y="3" font-family="sans-serif">TOKEN_TRANSFER</text></g><g class="relationship" transform="translate(356.26202991988 211.55834657698162) rotate(346.8604693839811)"><path class="outline" fill="#A5ABB6" stroke="none" d="M 25 0.5 L 25.809663868118875 0.5 L 25.809663868118875 -0.5 L 25 -0.5 Z M 98.79013261811888 0.5 L 99.59979648623775 0.5 L 99.59979648623775 3.5 L 106.59979648623775 0 L 99.59979648623775 -3.5 L 99.59979648623775 -0.5 L 98.79013261811888 -0.5 Z"/><text text-anchor="middle" pointer-events="none" font-size="8px" fill="#000000" x="62.299898243118875" y="3" font-family="sans-serif">TOKEN_TRANS…</text></g><g class="relationship" transform="translate(-270.9205377157751 210.68184837904835) rotate(436.61850054085846)"><path class="outline" fill="#A5ABB6" stroke="none" d="M 25 0.5 L 26.975743410595697 0.5 L 26.975743410595697 -0.5 L 25 -0.5 Z M 107.9562121605957 0.5 L 109.9319555711914 0.5 L 109.9319555711914 3.5 L 116.9319555711914 0 L 109.9319555711914 -3.5 L 109.9319555711914 -0.5 L 107.9562121605957 -0.5 Z"/><text text-anchor="middle" pointer-events="none" font-size="8px" fill="#000000" x="67.4659777855957" y="3" font-family="sans-serif">TOKEN_TRANSFER</text></g><g class="relationship" transform="translate(-270.9205377157751 210.68184837904835) rotate(284.70579814310696)"><path class="outline" fill="#A5ABB6" stroke="none" d="M 25 0.5 L 47.2344749178874 0.5 L 47.2344749178874 -0.5 L 25 -0.5 Z M 128.21494366788738 0.5 L 150.4494185857748 0.5 L 150.4494185857748 3.5 L 157.4494185857748 0 L 150.4494185857748 -3.5 L 150.4494185857748 -0.5 L 128.21494366788738 -0.5 Z"/><text text-anchor="middle" pointer-events="none" font-size="8px" fill="#000000" x="87.7247092928874" y="3" font-family="sans-serif">TOKEN_TRANSFER</text></g><g class="relationship" transform="translate(-270.9205377157751 210.68184837904835) rotate(366.25772094857217)"><path class="outline" fill="#A5ABB6" stroke="none" d="M 24.018736134675446,-6.953439040707552 L 24.277555179777966,-5.987513214418485 A 201.9896076364065 201.9896076364065 0 0 1 34.22933130169147,-8.385542724845862 L 34.01978100976078,-9.363340595140016 A 202.9896076364065 202.9896076364065 0 0 0 24.018736134675446,-6.953439040707552 Z M 114.65527957421327,-10.262704070102615 L 114.46759032514791,-9.28047561104367 A 201.9896076364065 201.9896076364065 0 0 1 124.47037668660248,-7.105008185255217 L 123.75874506309859,-4.190633392537368 L 131.38918980686145,-5.930263529199102 L 125.41921885127434,-10.99084124221235 L 124.70758722777045,-8.0764664494945 A 202.9896076364065 202.9896076364065 0 0 0 114.65527957421327,-10.262704070102615"/><text text-anchor="middle" pointer-events="none" font-size="8px" fill="#000000" x="74.29799661880173" y="-10.357548584938797" font-family="sans-serif">TOKEN_TRANSFER</text></g><g class="relationship" transform="translate(-270.9205377157751 210.68184837904835) rotate(366.25772094857217)"><path class="outline" fill="#A5ABB6" stroke="none" d="M 24.018736134675446,6.953439040707552 L 24.277555179777966,5.987513214418485 A 201.9896076364065 201.9896076364065 0 0 0 34.22933130169148,8.385542724845891 L 34.01978100976079,9.363340595140045 A 202.9896076364065 202.9896076364065 0 0 1 24.018736134675446,6.953439040707552 Z M 114.6552795742133,10.262704070102615 L 114.46759032514794,9.28047561104367 A 201.9896076364065 201.9896076364065 0 0 0 124.47037668660248,7.105008185255217 L 123.75874506309859,4.190633392537368 L 131.38918980686145,5.930263529199102 L 125.41921885127434,10.99084124221235 L 124.70758722777045,8.0764664494945 A 202.9896076364065 202.9896076364065 0 0 1 114.6552795742133,10.262704070102615"/><text text-anchor="middle" pointer-events="none" font-size="8px" fill="#000000" x="74.29799661880175" y="16.357548584938797" font-family="sans-serif">TOKEN_TRANSFER</text></g><g class="relationship" transform="translate(-270.9205377157751 210.68184837904835) rotate(239.5970358925661)"><path class="outline" fill="#A5ABB6" stroke="none" d="M 25 0.5 L 118.77600549989273 0.5 L 118.77600549989273 -0.5 L 25 -0.5 Z M 199.75647424989273 0.5 L 293.53247974978547 0.5 L 293.53247974978547 3.5 L 300.53247974978547 0 L 293.53247974978547 -3.5 L 293.53247974978547 -0.5 L 199.75647424989273 -0.5 Z"/><text text-anchor="middle" pointer-events="none" font-size="8px" fill="#000000" x="159.26623987489273" y="3" transform="rotate(180 159.26623987489273 0)" font-family="sans-serif">TOKEN_TRANSFER</text></g><g class="relationship" transform="translate(-270.9205377157751 210.68184837904835) rotate(470.62975424924383)"><path class="outline" fill="#A5ABB6" stroke="none" d="M 25 0.5 L 60.117986265957654 0.5 L 60.117986265957654 -0.5 L 25 -0.5 Z M 141.09845501595765 0.5 L 176.2164412819153 0.5 L 176.2164412819153 3.5 L 183.2164412819153 0 L 176.2164412819153 -3.5 L 176.2164412819153 -0.5 L 141.09845501595765 -0.5 Z"/><text text-anchor="middle" pointer-events="none" font-size="8px" fill="#000000" x="100.60822064095765" y="3" transform="rotate(180 100.60822064095765 0)" font-family="sans-serif">TOKEN_TRANSFER</text></g><g class="relationship" transform="translate(-270.9205377157751 210.68184837904835) rotate(331.75237193496673)"><path class="outline" fill="#A5ABB6" stroke="none" d="M 25 0.5 L 56.866846676376426 0.5 L 56.866846676376426 -0.5 L 25 -0.5 Z M 137.84731542637644 0.5 L 169.71416210275285 0.5 L 169.71416210275285 3.5 L 176.71416210275285 0 L 169.71416210275285 -3.5 L 169.71416210275285 -0.5 L 137.84731542637644 -0.5 Z"/><text text-anchor="middle" pointer-events="none" font-size="8px" fill="#000000" x="97.35708105137643" y="3" font-family="sans-serif">TOKEN_TRANSFER</text></g><g class="relationship" transform="translate(534.0153033537939 -453.9803531052713) rotate(393.30810206780404)"><path class="outline" fill="#A5ABB6" stroke="none" d="M 25 0.5 L 26.630247103543375 0.5 L 26.630247103543375 -0.5 L 25 -0.5 Z M 72.49743460354338 0.5 L 74.12768170708675 0.5 L 74.12768170708675 3.5 L 81.12768170708675 0 L 74.12768170708675 -3.5 L 74.12768170708675 -0.5 L 72.49743460354338 -0.5 Z"/><text text-anchor="middle" pointer-events="none" font-size="8px" fill="#000000" x="49.563840853543375" y="3" font-family="sans-serif">TOKEN_…</text></g><g class="relationship" transform="translate(458.1067291597736 -528.2344573855117) rotate(404.3687492201736)"><path class="outline" fill="#A5ABB6" stroke="none" d="M 25 0.5 L 26.660152677027327 0.5 L 26.660152677027327 -0.5 L 25 -0.5 Z M 72.52734017702733 0.5 L 74.18749285405465 0.5 L 74.18749285405465 3.5 L 81.18749285405465 0 L 74.18749285405465 -3.5 L 74.18749285405465 -0.5 L 72.52734017702733 -0.5 Z"/><text text-anchor="middle" pointer-events="none" font-size="8px" fill="#000000" x="49.59374642702733" y="3" font-family="sans-serif">TOKEN_…</text></g><g class="relationship" transform="translate(-564.4942595548539 216.44536886516116) rotate(358.8752978949125)"><path class="outline" fill="#A5ABB6" stroke="none" d="M 5.987513214418485,24.277555179777966 L 6.953439040707552,24.018736134675446 A 144.09210035479225 144.09210035479225 0 0 0 103.15281694581223,124.25678324095666 L 102.85451535199834,125.21125490587296 A 145.09210035479225 145.09210035479225 0 0 1 5.987513214418485,24.277555179777966 Z M 183.03613855022246,127.04629006746076 L 182.781814446275,126.07917102093582 A 144.09210035479225 144.09210035479225 0 0 0 283.4661631488717,30.3470012798029 L 280.6069409707006,29.438789555668954 L 286.06186086821276,23.82685148475926 L 287.2784593864332,31.557950245314828 L 284.4192372082621,30.649738521180883 A 145.09210035479225 145.09210035479225 0 0 1 183.03613855022246,127.04629006746076"/><text text-anchor="middle" pointer-events="none" font-size="8px" fill="#000000" x="142.82745424298923" y="134.27920516815763" font-family="sans-serif">TOKEN_TRANSFER</text></g><g class="relationship" transform="translate(-564.4942595548539 216.44536886516116) rotate(358.8752978949125)"><path class="outline" fill="#A5ABB6" stroke="none" d="M 17.324116139070416,18.03122292025696 L 18.031222920256962,17.324116139070412 A 181.16711736580993 181.16711736580993 0 0 0 103.16727959750887,65.217452806614 L 102.93010388281573,66.18891957411552 A 182.16711736580993 182.16711736580993 0 0 1 17.324116139070416,18.03122292025696 Z M 183.4517467639507,67.5237770509726 L 183.24690174490493,66.54498263018132 A 181.16711736580993 181.16711736580993 0 0 0 269.92365664162605,21.499894060208206 L 267.8738155064818,19.30942577222267 L 275.37638950278307,17.082009459535733 L 272.6567781551518,24.420518444188918 L 270.60693702000754,22.230050156203383 A 182.16711736580993 182.16711736580993 0 0 1 183.4517467639507,67.5237770509726"/><text text-anchor="middle" pointer-events="none" font-size="8px" fill="#000000" x="143.12452480541052" y="73.86177877086448" font-family="sans-serif">TOKEN_TRANSFER</text></g><g class="relationship" transform="translate(-564.4942595548539 216.44536886516116) rotate(358.8752978949125)"><path class="outline" fill="#A5ABB6" stroke="none" d="M 24.018736134675446,6.953439040707552 L 24.277555179777966,5.987513214418485 A 470.82379470797343 470.82379470797343 0 0 0 102.90978124235176,20.041977302975113 L 102.817972078539,21.037753923226887 A 471.82379470797343 471.82379470797343 0 0 1 24.018736134675446,6.953439040707552 Z M 183.78319960915624,21.526074221815293 L 183.7034082126778,20.529262638291073 A 470.82379470797343 470.82379470797343 0 0 0 262.49943924356967,7.424285333811911 L 261.7579916760475,4.517353015264495 L 269.4058559147673,6.178729729351408 L 263.4880360002659,11.300195091875132 L 262.7465884327437,8.393262773327717 A 471.82379470797343 471.82379470797343 0 0 1 183.78319960915624,21.526074221815293"/><text text-anchor="middle" pointer-events="none" font-size="8px" fill="#000000" x="143.29310736144046" y="25.52187282793011" font-family="sans-serif">TOKEN_TRANSFER</text></g><g class="relationship" transform="translate(-564.4942595548539 216.44536886516116) rotate(358.8752978949125)"><path class="outline" fill="#A5ABB6" stroke="none" d="M 24.018736134675446,-6.953439040707552 L 24.277555179777966,-5.987513214418485 A 470.82379470797343 470.82379470797343 0 0 1 102.9097812423516,-20.041977302975056 L 102.81797207853884,-21.03775392322683 A 471.82379470797343 471.82379470797343 0 0 0 24.018736134675446,-6.953439040707552 Z M 183.78319960915607,-21.526074221815293 L 183.7034082126776,-20.529262638291073 A 470.82379470797343 470.82379470797343 0 0 1 262.49943924356967,-7.424285333811911 L 261.7579916760475,-4.517353015264495 L 269.4058559147673,-6.178729729351408 L 263.4880360002659,-11.300195091875132 L 262.7465884327437,-8.393262773327717 A 471.82379470797343 471.82379470797343 0 0 0 183.78319960915607,-21.526074221815293"/><text text-anchor="middle" pointer-events="none" font-size="8px" fill="#000000" x="143.2931073614403" y="-19.52187282793011" font-family="sans-serif">TOKEN_TRANSFER</text></g><g class="relationship" transform="translate(-564.4942595548539 216.44536886516116) rotate(358.8752978949125)"><path class="outline" fill="#A5ABB6" stroke="none" d="M 17.324116139070416,-18.03122292025696 L 18.031222920256962,-17.324116139070412 A 181.16711736580993 181.16711736580993 0 0 1 103.16727959750885,-65.217452806614 L 102.93010388281571,-66.18891957411552 A 182.16711736580993 182.16711736580993 0 0 0 17.324116139070416,-18.03122292025696 Z M 183.45174676395067,-67.5237770509726 L 183.24690174490493,-66.54498263018132 A 181.16711736580993 181.16711736580993 0 0 1 269.92365664162605,-21.499894060208206 L 267.8738155064818,-19.30942577222267 L 275.37638950278307,-17.082009459535733 L 272.6567781551518,-24.420518444188918 L 270.60693702000754,-22.230050156203383 A 182.16711736580993 182.16711736580993 0 0 0 183.45174676395067,-67.5237770509726"/><text text-anchor="middle" pointer-events="none" font-size="8px" fill="#000000" x="143.1245248054105" y="-67.86177877086448" font-family="sans-serif">TOKEN_TRANSFER</text></g><g class="relationship" transform="translate(-564.4942595548539 216.44536886516116) rotate(358.8752978949125)"><path class="outline" fill="#A5ABB6" stroke="none" d="M 5.987513214418485,-24.277555179777966 L 6.953439040707552,-24.018736134675446 A 144.09210035479225 144.09210035479225 0 0 1 103.15281694581225,-124.25678324095666 L 102.85451535199837,-125.21125490587296 A 145.09210035479225 145.09210035479225 0 0 0 5.987513214418485,-24.277555179777966 Z M 183.03613855022246,-127.04629006746073 L 182.781814446275,-126.07917102093579 A 144.09210035479225 144.09210035479225 0 0 1 283.4661631488717,-30.3470012798029 L 280.6069409707006,-29.438789555668954 L 286.06186086821276,-23.82685148475926 L 287.2784593864332,-31.557950245314828 L 284.4192372082621,-30.649738521180883 A 145.09210035479225 145.09210035479225 0 0 0 183.03613855022246,-127.04629006746073"/><text text-anchor="middle" pointer-events="none" font-size="8px" fill="#000000" x="142.82745424298923" y="-128.27920516815763" font-family="sans-serif">TOKEN_TRANSFER</text></g><g class="relationship" transform="translate(-169.9304308754692 -138.97015124256336) rotate(343.023153025963)"><path class="outline" fill="#A5ABB6" stroke="none" d="M 25 0.5 L 27.61277450121193 0.5 L 27.61277450121193 -0.5 L 25 -0.5 Z M 108.59324325121193 0.5 L 111.20601775242386 0.5 L 111.20601775242386 3.5 L 118.20601775242386 0 L 111.20601775242386 -3.5 L 111.20601775242386 -0.5 L 108.59324325121193 -0.5 Z"/><text text-anchor="middle" pointer-events="none" font-size="8px" fill="#000000" x="68.10300887621193" y="3" font-family="sans-serif">TOKEN_TRANSFER</text></g><g class="relationship" transform="translate(-169.9304308754692 -138.97015124256336) rotate(296.0789673728177)"><path class="outline" fill="#A5ABB6" stroke="none" d="M 25 0.5 L 26.40065249804198 0.5 L 26.40065249804198 -0.5 L 25 -0.5 Z M 99.38112124804198 0.5 L 100.78177374608396 0.5 L 100.78177374608396 3.5 L 107.78177374608396 0 L 100.78177374608396 -3.5 L 100.78177374608396 -0.5 L 99.38112124804198 -0.5 Z"/><text text-anchor="middle" pointer-events="none" font-size="8px" fill="#000000" x="62.89088687304198" y="3" font-family="sans-serif">TOKEN_TRANS…</text></g><g class="relationship" transform="translate(-169.9304308754692 -138.97015124256336) rotate(274.8690028967892)"><path class="outline" fill="#A5ABB6" stroke="none" d="M 25 0.5 L 35.631234175583344 0.5 L 35.631234175583344 -0.5 L 25 -0.5 Z M 116.61170292558334 0.5 L 127.24293710116669 0.5 L 127.24293710116669 3.5 L 134.2429371011667 0 L 127.24293710116669 -3.5 L 127.24293710116669 -0.5 L 116.61170292558334 -0.5 Z"/><text text-anchor="middle" pointer-events="none" font-size="8px" fill="#000000" x="76.12146855058334" y="3" font-family="sans-serif">TOKEN_TRANSFER</text></g><g class="relationship" transform="translate(-169.9304308754692 -138.97015124256336) rotate(319.59371198878387)"><path class="outline" fill="#A5ABB6" stroke="none" d="M 25 0.5 L 30.950702605239158 0.5 L 30.950702605239158 -0.5 L 25 -0.5 Z M 111.93117135523916 0.5 L 117.88187396047832 0.5 L 117.88187396047832 3.5 L 124.88187396047832 0 L 117.88187396047832 -3.5 L 117.88187396047832 -0.5 L 111.93117135523916 -0.5 Z"/><text text-anchor="middle" pointer-events="none" font-size="8px" fill="#000000" x="71.44093698023916" y="3" font-family="sans-serif">TOKEN_TRANSFER</text></g><g class="relationship" transform="translate(-55.80030386787233 -236.12410253191914) rotate(301.07216595274264)"><path class="outline" fill="#A5ABB6" stroke="none" d="M 25 0.5 L 25.75332308250475 0.5 L 25.75332308250475 -0.5 L 25 -0.5 Z M 87.62051058250475 0.5 L 88.3738336650095 0.5 L 88.3738336650095 3.5 L 95.3738336650095 0 L 88.3738336650095 -3.5 L 88.3738336650095 -0.5 L 87.62051058250475 -0.5 Z"/><text text-anchor="middle" pointer-events="none" font-size="8px" fill="#000000" x="56.68691683250475" y="3" font-family="sans-serif">TOKEN_TRA…</text></g><g class="relationship" transform="translate(238.7897731748189 -400.57347894413226) rotate(496.24299365473587)"><path class="outline" fill="#A5ABB6" stroke="none" d="M 25 0.5 L 26.232559949950186 0.5 L 26.232559949950186 -0.5 L 25 -0.5 Z M 99.21302869995019 0.5 L 100.44558864990037 0.5 L 100.44558864990037 3.5 L 107.44558864990037 0 L 100.44558864990037 -3.5 L 100.44558864990037 -0.5 L 99.21302869995019 -0.5 Z"/><text text-anchor="middle" pointer-events="none" font-size="8px" fill="#000000" x="62.722794324950186" y="3" transform="rotate(180 62.722794324950186 0)" font-family="sans-serif">TOKEN_TRANS…</text></g><g class="relationship" transform="translate(238.7897731748189 -400.57347894413226) rotate(523.0598580189314)"><path class="outline" fill="#A5ABB6" stroke="none" d="M 25 0.5 L 27.575171571662665 0.5 L 27.575171571662665 -0.5 L 25 -0.5 Z M 78.32907782166266 0.5 L 80.90424939332533 0.5 L 80.90424939332533 3.5 L 87.90424939332533 0 L 80.90424939332533 -3.5 L 80.90424939332533 -0.5 L 78.32907782166266 -0.5 Z"/><text text-anchor="middle" pointer-events="none" font-size="8px" fill="#000000" x="52.952124696662665" y="3" transform="rotate(180 52.952124696662665 0)" font-family="sans-serif">TOKEN_T…</text></g><g class="relationship" transform="translate(238.7897731748189 -400.57347894413226) rotate(192.2843743974741)"><path class="outline" fill="#A5ABB6" stroke="none" d="M 25 0.5 L 26.66442784828117 0.5 L 26.66442784828117 -0.5 L 25 -0.5 Z M 88.53161534828118 0.5 L 90.19604319656234 0.5 L 90.19604319656234 3.5 L 97.19604319656234 0 L 90.19604319656234 -3.5 L 90.19604319656234 -0.5 L 88.53161534828118 -0.5 Z"/><text text-anchor="middle" pointer-events="none" font-size="8px" fill="#000000" x="57.59802159828117" y="3" transform="rotate(180 57.59802159828117 0)" font-family="sans-serif">TOKEN_TRA…</text></g><g class="relationship" transform="translate(119.39157514005204 -426.57238813176417) rotate(502.3128552611673)"><path class="outline" fill="#A5ABB6" stroke="none" d="M 25 0.5 L 27.446759265797027 0.5 L 27.446759265797027 -0.5 L 25 -0.5 Z M 108.42722801579703 0.5 L 110.87398728159405 0.5 L 110.87398728159405 3.5 L 117.87398728159405 0 L 110.87398728159405 -3.5 L 110.87398728159405 -0.5 L 108.42722801579703 -0.5 Z"/><text text-anchor="middle" pointer-events="none" font-size="8px" fill="#000000" x="67.93699364079703" y="3" transform="rotate(180 67.93699364079703 0)" font-family="sans-serif">TOKEN_TRANSFER</text></g><g class="relationship" transform="translate(130.78447524023835 -367.6762883477805) rotate(527.1239691406256)"><path class="outline" fill="#A5ABB6" stroke="none" d="M 25 0.5 L 26.51175319904972 0.5 L 26.51175319904972 -0.5 L 25 -0.5 Z M 94.15628444904972 0.5 L 95.66803764809944 0.5 L 95.66803764809944 3.5 L 102.66803764809944 0 L 95.66803764809944 -3.5 L 95.66803764809944 -0.5 L 94.15628444904972 -0.5 Z"/><text text-anchor="middle" pointer-events="none" font-size="8px" fill="#000000" x="60.33401882404972" y="3" transform="rotate(180 60.33401882404972 0)" font-family="sans-serif">TOKEN_TRAN…</text></g><g class="relationship" transform="translate(143.12705342581685 -308.9739265268714) rotate(192.46990252764374)"><path class="outline" fill="#A5ABB6" stroke="none" d="M 25 0.5 L 26.062509932171167 0.5 L 26.062509932171167 -0.5 L 25 -0.5 Z M 107.04297868217117 0.5 L 108.10548861434233 0.5 L 108.10548861434233 3.5 L 115.10548861434233 0 L 108.10548861434233 -3.5 L 108.10548861434233 -0.5 L 107.04297868217117 -0.5 Z"/><text text-anchor="middle" pointer-events="none" font-size="8px" fill="#000000" x="66.55274430717117" y="3" transform="rotate(180 66.55274430717117 0)" font-family="sans-serif">TOKEN_TRANSFER</text></g><g class="relationship" transform="translate(-156.4142269574705 -297.63843808102774) rotate(345.66500817435247)"><path class="outline" fill="#A5ABB6" stroke="none" d="M 25 0.5 L 39.99514576907579 0.5 L 39.99514576907579 -0.5 L 25 -0.5 Z M 120.97561451907579 0.5 L 135.97076028815158 0.5 L 135.97076028815158 3.5 L 142.97076028815158 0 L 135.97076028815158 -3.5 L 135.97076028815158 -0.5 L 120.97561451907579 -0.5 Z"/><text text-anchor="middle" pointer-events="none" font-size="8px" fill="#000000" x="80.48538014407579" y="3" font-family="sans-serif">TOKEN_TRANSFER</text></g><g class="relationship" transform="translate(6.326713793568381 -339.2264473534915) rotate(247.36785843274907)"><path class="outline" fill="#A5ABB6" stroke="none" d="M 24.018736134675446,-6.953439040707552 L 24.277555179777966,-5.987513214418485 A 131.97315460040525 131.97315460040525 0 0 1 26.06817375860674,-6.453878805258881 L 25.822922765160257,-7.4233384228879515 A 132.97315460040525 132.97315460040525 0 0 0 24.018736134675446,-6.953439040707552 Z M 87.35453744387688,-8.30146580939089 L 87.13705131670963,-7.3254023972655204 A 131.97315460040525 131.97315460040525 0 0 1 88.94024911145982,-6.910324727214787 L 88.24680062556425,-3.9915699931870825 L 95.8662515718404,-5.778737382463077 L 89.86484709265392,-10.801997705918394 L 89.17139860675834,-7.88324297189069 A 132.97315460040525 132.97315460040525 0 0 0 87.35453744387688,-8.30146580939089"/><text text-anchor="middle" pointer-events="none" font-size="8px" fill="#000000" x="56.54436822146363" y="-7.970901334492538" transform="rotate(180 56.54436822146363 -10.970901334492538)" font-family="sans-serif">TOKEN_TRA…</text></g><g class="relationship" transform="translate(6.326713793568381 -339.2264473534915) rotate(247.36785843274907)"><path class="outline" fill="#A5ABB6" stroke="none" d="M 24.018736134675446,6.953439040707552 L 24.277555179777966,5.987513214418485 A 131.97315460040525 131.97315460040525 0 0 0 26.06817375860674,6.453878805258881 L 25.822922765160257,7.4233384228879515 A 132.97315460040525 132.97315460040525 0 0 1 24.018736134675446,6.953439040707552 Z M 87.35453744387692,8.301465809390862 L 87.13705131670966,7.3254023972655204 A 131.97315460040525 131.97315460040525 0 0 0 88.94024911145982,6.910324727214787 L 88.24680062556425,3.9915699931870825 L 95.8662515718404,5.778737382463077 L 89.86484709265392,10.801997705918394 L 89.17139860675834,7.88324297189069 A 132.97315460040525 132.97315460040525 0 0 1 87.35453744387692,8.301465809390862"/><text text-anchor="middle" pointer-events="none" font-size="8px" fill="#000000" x="56.54436822146365" y="13.970901334492538" transform="rotate(180 56.54436822146365 10.970901334492538)" font-family="sans-serif">TOKEN_TRA…</text></g><g class="relationship" transform="translate(6.326713793568381 -339.2264473534915) rotate(211.12810749797654)"><path class="outline" fill="#A5ABB6" stroke="none" d="M 25 0.5 L 27.857489039813387 0.5 L 27.857489039813387 -0.5 L 25 -0.5 Z M 108.83795778981339 0.5 L 111.69544682962677 0.5 L 111.69544682962677 3.5 L 118.69544682962677 0 L 111.69544682962677 -3.5 L 111.69544682962677 -0.5 L 108.83795778981339 -0.5 Z"/><text text-anchor="middle" pointer-events="none" font-size="8px" fill="#000000" x="68.34772341481339" y="3" transform="rotate(180 68.34772341481339 0)" font-family="sans-serif">TOKEN_TRANSFER</text></g><g class="relationship" transform="translate(-116.67854103326788 -413.5102862725402) rotate(208.6416872556922)"><path class="outline" fill="#A5ABB6" stroke="none" d="M 25 0.5 L 25.152681041469293 0.5 L 25.152681041469293 -0.5 L 25 -0.5 Z M 98.1331497914693 0.5 L 98.28583083293859 0.5 L 98.28583083293859 3.5 L 105.28583083293859 0 L 98.28583083293859 -3.5 L 98.28583083293859 -0.5 L 98.1331497914693 -0.5 Z"/><text text-anchor="middle" pointer-events="none" font-size="8px" fill="#000000" x="61.64291541646929" y="3" transform="rotate(180 61.64291541646929 0)" font-family="sans-serif">TOKEN_TRANS…</text></g><g class="relationship" transform="translate(-231.02187536727794 -475.96026312769914) rotate(188.5019390611563)"><path class="outline" fill="#A5ABB6" stroke="none" d="M 25 0.5 L 26.606442273215805 0.5 L 26.606442273215805 -0.5 L 25 -0.5 Z M 77.3603485232158 0.5 L 78.96679079643161 0.5 L 78.96679079643161 3.5 L 85.96679079643161 0 L 78.96679079643161 -3.5 L 78.96679079643161 -0.5 L 77.3603485232158 -0.5 Z"/><text text-anchor="middle" pointer-events="none" font-size="8px" fill="#000000" x="51.983395398215805" y="3" transform="rotate(180 51.983395398215805 0)" font-family="sans-serif">TOKEN_T…</text></g><g class="relationship" transform="translate(73.20251616103442 -596.9261446619153) rotate(466.4044751366332)"><path class="outline" fill="#A5ABB6" stroke="none" d="M 25 0.5 L 26.125002961817046 0.5 L 26.125002961817046 -0.5 L 25 -0.5 Z M 93.76953421181705 0.5 L 94.89453717363409 0.5 L 94.89453717363409 3.5 L 101.89453717363409 0 L 94.89453717363409 -3.5 L 94.89453717363409 -0.5 L 93.76953421181705 -0.5 Z"/><text text-anchor="middle" pointer-events="none" font-size="8px" fill="#000000" x="59.947268586817046" y="3" transform="rotate(180 59.947268586817046 0)" font-family="sans-serif">TOKEN_TRAN…</text></g><g class="relationship" transform="translate(37.36541981892236 -475.1972405746896) rotate(462.85884895797756)"><path class="outline" fill="#A5ABB6" stroke="none" d="M 25 0.5 L 25.744007359118967 0.5 L 25.744007359118967 -0.5 L 25 -0.5 Z M 106.72447610911897 0.5 L 107.46848346823793 0.5 L 107.46848346823793 3.5 L 114.46848346823793 0 L 107.46848346823793 -3.5 L 107.46848346823793 -0.5 L 106.72447610911897 -0.5 Z"/><text text-anchor="middle" pointer-events="none" font-size="8px" fill="#000000" x="66.23424173411897" y="3" transform="rotate(180 66.23424173411897 0)" font-family="sans-serif">TOKEN_TRANSFER</text></g><g class="relationship" transform="translate(-111.55830376254487 -258.23328140217654) rotate(325.50890120127303)"><path class="outline" fill="#A5ABB6" stroke="none" d="M 25 0.5 L 27.523348766635365 0.5 L 27.523348766635365 -0.5 L 25 -0.5 Z M 108.50381751663537 0.5 L 111.02716628327073 0.5 L 111.02716628327073 3.5 L 118.02716628327073 0 L 111.02716628327073 -3.5 L 111.02716628327073 -0.5 L 108.50381751663537 -0.5 Z"/><text text-anchor="middle" pointer-events="none" font-size="8px" fill="#000000" x="68.01358314163537" y="3" font-family="sans-serif">TOKEN_TRANSFER</text></g><g class="relationship" transform="translate(-32.96492692378227 -180.7841949093504) rotate(283.92764769572716)"><path class="outline" fill="#A5ABB6" stroke="none" d="M 25 0.5 L 37.630505008189715 0.5 L 37.630505008189715 -0.5 L 25 -0.5 Z M 118.61097375818971 0.5 L 131.24147876637943 0.5 L 131.24147876637943 3.5 L 138.24147876637943 0 L 131.24147876637943 -3.5 L 131.24147876637943 -0.5 L 118.61097375818971 -0.5 Z"/><text text-anchor="middle" pointer-events="none" font-size="8px" fill="#000000" x="78.12073938318971" y="3" font-family="sans-serif">TOKEN_TRANSFER</text></g><g class="relationship" transform="translate(-493.14419458354666 -308.13402351961184) rotate(479.0875149276484)"><path class="outline" fill="#A5ABB6" stroke="none" d="M 25 0.5 L 25.6668568220175 0.5 L 25.6668568220175 -0.5 L 25 -0.5 Z M 71.53404432201751 0.5 L 72.200901144035 0.5 L 72.200901144035 3.5 L 79.200901144035 0 L 72.200901144035 -3.5 L 72.200901144035 -0.5 L 71.53404432201751 -0.5 Z"/><text text-anchor="middle" pointer-events="none" font-size="8px" fill="#000000" x="48.6004505720175" y="3" transform="rotate(180 48.6004505720175 0)" font-family="sans-serif">TOKEN_…</text></g><g class="relationship" transform="translate(-435.66548908455314 -70.08584272971049) rotate(474.20940511147404)"><path class="outline" fill="#A5ABB6" stroke="none" d="M 24.018736134675446,6.953439040707552 L 24.277555179777966,5.987513214418485 A 510.65717717174334 510.65717717174334 0 0 0 113.16388668622162,21.550237472783067 L 113.07913027154903,22.546639173991878 A 511.65717717174334 511.65717717174334 0 0 1 24.018736134675446,6.953439040707552 Z M 194.05277756423934,23.003767514753918 L 193.97927635856485,22.006472386537382 A 510.65717717174334 510.65717717174334 0 0 0 283.0356522382471,7.448305256297259 L 282.29196175617506,4.541945941471322 L 289.94110571985294,6.197420683933541 L 284.02723954767646,11.323451009398509 L 283.2835490656044,8.417091694572571 A 511.65717717174334 511.65717717174334 0 0 1 194.05277756423934,23.003767514753918"/><text text-anchor="middle" pointer-events="none" font-size="8px" fill="#000000" x="153.5597192210438" y="26.879589353120707" transform="rotate(180 153.5597192210438 23.879589353120707)" font-family="sans-serif">TOKEN_TRANSFER</text></g><g class="relationship" transform="translate(-435.66548908455314 -70.08584272971049) rotate(474.20940511147404)"><path class="outline" fill="#A5ABB6" stroke="none" d="M 24.018736134675446,-6.953439040707552 L 24.277555179777966,-5.987513214418485 A 510.65717717174334 510.65717717174334 0 0 1 113.16388668622164,-21.550237472783067 L 113.07913027154906,-22.546639173991878 A 511.65717717174334 511.65717717174334 0 0 0 24.018736134675446,-6.953439040707552 Z M 194.05277756423914,-23.003767514753918 L 193.97927635856468,-22.006472386537382 A 510.65717717174334 510.65717717174334 0 0 1 283.0356522382471,-7.448305256297259 L 282.29196175617506,-4.541945941471322 L 289.94110571985294,-6.197420683933541 L 284.02723954767646,-11.323451009398509 L 283.2835490656044,-8.417091694572571 A 511.65717717174334 511.65717717174334 0 0 0 194.05277756423914,-23.003767514753918"/><text text-anchor="middle" pointer-events="none" font-size="8px" fill="#000000" x="153.5597192210437" y="-20.879589353120707" transform="rotate(180 153.5597192210437 -23.879589353120707)" font-family="sans-serif">TOKEN_TRANSFER</text></g></g><g class="layer nodes"><g class="node" transform="translate(-617.0181232860125,-31.916779883120373)"><circle class="outline" cx="0" cy="0" r="25" fill="#F79767" stroke="#f36924" stroke-width="2px"/><text text-anchor="middle" pointer-events="none" font-family="sans-serif" dy="1.5625" font-size="25" fill="#FFFFFF"/><text text-anchor="middle" pointer-events="none" x="0" y="5" font-size="10px" fill="#FFFFFF" font-family="sans-serif"> 0xf971fb…</text></g><g class="node" transform="translate(-581.8788483839271,65.14496032806008)"><circle class="outline" cx="0" cy="0" r="25" fill="#F79767" stroke="#f36924" stroke-width="2px"/><text text-anchor="middle" pointer-events="none" font-family="sans-serif" dy="1.5625" font-size="25" fill="#FFFFFF"/><text text-anchor="middle" pointer-events="none" x="0" y="5" font-size="10px" fill="#FFFFFF" font-family="sans-serif"> 0xa1cd3…</text></g><g class="node" transform="translate(-595.6624873481934,337.2480974250668)"><circle class="outline" cx="0" cy="0" r="25" fill="#F79767" stroke="#f36924" stroke-width="2px"/><text text-anchor="middle" pointer-events="none" font-family="sans-serif" dy="1.5625" font-size="25" fill="#FFFFFF"/><text text-anchor="middle" pointer-events="none" x="0" y="5" font-size="10px" fill="#FFFFFF" font-family="sans-serif"> 0xb0ee3…</text></g><g class="node" transform="translate(-512.5917892033755,400.0380038781517)"><circle class="outline" cx="0" cy="0" r="25" fill="#F79767" stroke="#f36924" stroke-width="2px"/><text text-anchor="middle" pointer-events="none" font-family="sans-serif" dy="1.5625" font-size="25" fill="#FFFFFF"/><text text-anchor="middle" pointer-events="none" x="0" y="5" font-size="10px" fill="#FFFFFF" font-family="sans-serif"> 0x6b957…</text></g><g class="node" transform="translate(-500.2914986033775,505.68453563140673)"><circle class="outline" cx="0" cy="0" r="25" fill="#F79767" stroke="#f36924" stroke-width="2px"/><text text-anchor="middle" pointer-events="none" font-family="sans-serif" dy="1.5625" font-size="25" fill="#FFFFFF"/><text text-anchor="middle" pointer-events="none" x="0" y="5" font-size="10px" fill="#FFFFFF" font-family="sans-serif"> 0x6ece8…</text></g><g class="node" transform="translate(-271.1463635785513,725.5295896628558)"><circle class="outline" cx="0" cy="0" r="25" fill="#F79767" stroke="#f36924" stroke-width="2px"/><text text-anchor="middle" pointer-events="none" font-family="sans-serif" dy="1.5625" font-size="25" fill="#FFFFFF"/><text text-anchor="middle" pointer-events="none" x="0" y="5" font-size="10px" fill="#FFFFFF" font-family="sans-serif"> 0x9328d…</text></g><g class="node" transform="translate(-352.99333427674156,659.5389407305861)"><circle class="outline" cx="0" cy="0" r="25" fill="#F79767" stroke="#f36924" stroke-width="2px"/><text text-anchor="middle" pointer-events="none" font-family="sans-serif" dy="1.5625" font-size="25" fill="#FFFFFF"/><text text-anchor="middle" pointer-events="none" x="0" y="5" font-size="10px" fill="#FFFFFF" font-family="sans-serif"> 0x08436…</text></g><g class="node" transform="translate(173.19076194126657,842.0718752210911)"><circle class="outline" cx="0" cy="0" r="25" fill="#F79767" stroke="#f36924" stroke-width="2px"/><text text-anchor="middle" pointer-events="none" font-family="sans-serif" dy="1.5625" font-size="25" fill="#FFFFFF"/><text text-anchor="middle" pointer-events="none" x="0" y="5" font-size="10px" fill="#FFFFFF" font-family="sans-serif"> 0x9a09d…</text></g><g class="node" transform="translate(464.8197812599773,793.7565685494276)"><circle class="outline" cx="0" cy="0" r="25" fill="#F79767" stroke="#f36924" stroke-width="2px"/><text text-anchor="middle" pointer-events="none" font-family="sans-serif" dy="1.5625" font-size="25" fill="#FFFFFF"/><text text-anchor="middle" pointer-events="none" x="0" y="5" font-size="10px" fill="#FFFFFF" font-family="sans-serif"> 0xcbba2…</text></g><g class="node" transform="translate(531.9891219987697,708.8372412469686)"><circle class="outline" cx="0" cy="0" r="25" fill="#F79767" stroke="#f36924" stroke-width="2px"/><text text-anchor="middle" pointer-events="none" font-family="sans-serif" dy="1.5625" font-size="25" fill="#FFFFFF"/><text text-anchor="middle" pointer-events="none" x="0" y="5" font-size="10px" fill="#FFFFFF" font-family="sans-serif"> 0xeff5b4…</text></g><g class="node" transform="translate(127.92748327527653,350.37784937499237)"><circle class="outline" cx="0" cy="0" r="25" fill="#F79767" stroke="#f36924" stroke-width="2px"/><text text-anchor="middle" pointer-events="none" font-family="sans-serif" dy="1.5625" font-size="25" fill="#FFFFFF"/><text text-anchor="middle" pointer-events="none" x="0" y="5" font-size="10px" fill="#FFFFFF" font-family="sans-serif"> 0xdf21fa…</text></g><g class="node" transform="translate(35.06318486291921,283.9435422052974)"><circle class="outline" cx="0" cy="0" r="25" fill="#F79767" stroke="#f36924" stroke-width="2px"/><text text-anchor="middle" pointer-events="none" font-family="sans-serif" dy="1.5625" font-size="25" fill="#FFFFFF"/><text text-anchor="middle" pointer-events="none" x="0" y="5" font-size="10px" fill="#FFFFFF" font-family="sans-serif"> 0x04c97…</text></g><g class="node" transform="translate(130.37160013856334,494.89190485962195)"><circle class="outline" cx="0" cy="0" r="25" fill="#F79767" stroke="#f36924" stroke-width="2px"/><text text-anchor="middle" pointer-events="none" font-family="sans-serif" dy="1.5625" font-size="25" fill="#FFFFFF"/><text text-anchor="middle" pointer-events="none" x="0" y="5" font-size="10px" fill="#FFFFFF" font-family="sans-serif"> 0x21dc9…</text></g><g class="node" transform="translate(292.24429702958713,278.3273216526784)"><circle class="outline" cx="0" cy="0" r="25" fill="#F79767" stroke="#f36924" stroke-width="2px"/><text text-anchor="middle" pointer-events="none" font-family="sans-serif" dy="1.5625" font-size="25" fill="#FFFFFF"/><text text-anchor="middle" pointer-events="none" x="0" y="5" font-size="10px" fill="#FFFFFF" font-family="sans-serif"> 0x055c0…</text></g><g class="node" transform="translate(-104.81635042687806,457.0069637915362)"><circle class="outline" cx="0" cy="0" r="25" fill="#F79767" stroke="#f36924" stroke-width="2px"/><text text-anchor="middle" pointer-events="none" font-family="sans-serif" dy="1.5625" font-size="25" fill="#FFFFFF"/><text text-anchor="middle" pointer-events="none" x="0" y="5" font-size="10px" fill="#FFFFFF" font-family="sans-serif"> 0x74350…</text></g><g class="node" transform="translate(1.510473846754525,391.100701276908)"><circle class="outline" cx="0" cy="0" r="25" fill="#F79767" stroke="#f36924" stroke-width="2px"/><text text-anchor="middle" pointer-events="none" font-family="sans-serif" dy="1.5625" font-size="25" fill="#FFFFFF"/><text text-anchor="middle" pointer-events="none" x="0" y="5" font-size="10px" fill="#FFFFFF" font-family="sans-serif"> 0x8f409…</text></g><g class="node" transform="translate(-57.41018043916701,790.6058675403616)"><circle class="outline" cx="0" cy="0" r="25" fill="#F79767" stroke="#f36924" stroke-width="2px"/><text text-anchor="middle" pointer-events="none" font-family="sans-serif" dy="1.5625" font-size="25" fill="#FFFFFF"/><text text-anchor="middle" pointer-events="none" x="0" y="5" font-size="10px" fill="#FFFFFF" font-family="sans-serif"> 0xed838…</text></g><g class="node" transform="translate(15.974500277085223,710.3599653694642)"><circle class="outline" cx="0" cy="0" r="25" fill="#F79767" stroke="#f36924" stroke-width="2px"/><text text-anchor="middle" pointer-events="none" font-family="sans-serif" dy="1.5625" font-size="25" fill="#FFFFFF"/><text text-anchor="middle" pointer-events="none" x="0" y="5" font-size="10px" fill="#FFFFFF" font-family="sans-serif"> 0xf3d30…</text></g><g class="node" transform="translate(63.292445952337765,604.5354381765782)"><circle class="outline" cx="0" cy="0" r="25" fill="#F79767" stroke="#f36924" stroke-width="2px"/><text text-anchor="middle" pointer-events="none" font-family="sans-serif" dy="1.5625" font-size="25" fill="#FFFFFF"/><text text-anchor="middle" pointer-events="none" x="0" y="5" font-size="10px" fill="#FFFFFF" font-family="sans-serif"> 0x0a869…</text></g><g class="node" transform="translate(146.80885904331961,101.87784165676038)"><circle class="outline" cx="0" cy="0" r="25" fill="#F79767" stroke="#f36924" stroke-width="2px"/><text text-anchor="middle" pointer-events="none" font-family="sans-serif" dy="1.5625" font-size="25" fill="#FFFFFF"/><text text-anchor="middle" pointer-events="none" x="0" y="5" font-size="10px" fill="#FFFFFF" font-family="sans-serif"> 0x32be3…</text></g><g class="node" transform="translate(65.32237168670464,479.00432114286633)"><circle class="outline" cx="0" cy="0" r="25" fill="#F79767" stroke="#f36924" stroke-width="2px"/><text text-anchor="middle" pointer-events="none" font-family="sans-serif" dy="1.5625" font-size="25" fill="#FFFFFF"/><text text-anchor="middle" pointer-events="none" x="0" y="5" font-size="10px" fill="#FFFFFF" font-family="sans-serif"> 0x86d7d…</text></g><g class="node" transform="translate(420.5926786993075,698.2416512929063)"><circle class="outline" cx="0" cy="0" r="25" fill="#F79767" stroke="#f36924" stroke-width="2px"/><text text-anchor="middle" pointer-events="none" font-family="sans-serif" dy="1.5625" font-size="25" fill="#FFFFFF"/><text text-anchor="middle" pointer-events="none" x="0" y="5" font-size="10px" fill="#FFFFFF" font-family="sans-serif"> 0x8b3b3…</text></g><g class="node" transform="translate(388.74800864647256,271.6134705650211)"><circle class="outline" cx="0" cy="0" r="25" fill="#F79767" stroke="#f36924" stroke-width="2px"/><text text-anchor="middle" pointer-events="none" font-family="sans-serif" dy="1.5625" font-size="25" fill="#FFFFFF"/><text text-anchor="middle" pointer-events="none" x="0" y="5" font-size="10px" fill="#FFFFFF" font-family="sans-serif"> 0x378cb…</text></g><g class="node" transform="translate(484.4164594851083,181.6426547409213)"><circle class="outline" cx="0" cy="0" r="25" fill="#F79767" stroke="#f36924" stroke-width="2px"/><text text-anchor="middle" pointer-events="none" font-family="sans-serif" dy="1.5625" font-size="25" fill="#FFFFFF"/><text text-anchor="middle" pointer-events="none" x="0" y="5" font-size="10px" fill="#FFFFFF" font-family="sans-serif"> 0xbf4ed…</text></g><g class="node" transform="translate(469.9418422735174,301.7060047633179)"><circle class="outline" cx="0" cy="0" r="25" fill="#F79767" stroke="#f36924" stroke-width="2px"/><text text-anchor="middle" pointer-events="none" font-family="sans-serif" dy="1.5625" font-size="25" fill="#FFFFFF"/><text text-anchor="middle" pointer-events="none" x="0" y="5" font-size="10px" fill="#FFFFFF" font-family="sans-serif"> 0xbec14…</text></g><g class="node" transform="translate(607.0014013156292,120.37305213693382)"><circle class="outline" cx="0" cy="0" r="25" fill="#F79767" stroke="#f36924" stroke-width="2px"/><text text-anchor="middle" pointer-events="none" font-family="sans-serif" dy="1.5625" font-size="25" fill="#FFFFFF"/><text text-anchor="middle" pointer-events="none" x="0" y="5" font-size="10px" fill="#FFFFFF" font-family="sans-serif"> 0x5a1f0…</text></g><g class="node" transform="translate(646.1426746474381,234.93259337487783)"><circle class="outline" cx="0" cy="0" r="25" fill="#F79767" stroke="#f36924" stroke-width="2px"/><text text-anchor="middle" pointer-events="none" font-family="sans-serif" dy="1.5625" font-size="25" fill="#FFFFFF"/><text text-anchor="middle" pointer-events="none" x="0" y="5" font-size="10px" fill="#FFFFFF" font-family="sans-serif"> 0x6965f…</text></g><g class="node" transform="translate(562.8316547225758,51.833073587646965)"><circle class="outline" cx="0" cy="0" r="25" fill="#F79767" stroke="#f36924" stroke-width="2px"/><text text-anchor="middle" pointer-events="none" font-family="sans-serif" dy="1.5625" font-size="25" fill="#FFFFFF"/><text text-anchor="middle" pointer-events="none" x="0" y="5" font-size="10px" fill="#FFFFFF" font-family="sans-serif"> 0xf5d9d…</text></g><g class="node" transform="translate(611.4002990219066,184.94769831307616)"><circle class="outline" cx="0" cy="0" r="25" fill="#F79767" stroke="#f36924" stroke-width="2px"/><text text-anchor="middle" pointer-events="none" font-family="sans-serif" dy="1.5625" font-size="25" fill="#FFFFFF"/><text text-anchor="middle" pointer-events="none" x="0" y="5" font-size="10px" fill="#FFFFFF" font-family="sans-serif"> 0x1a4a1…</text></g><g class="node" transform="translate(545.7371265881465,310.5287275225299)"><circle class="outline" cx="0" cy="0" r="25" fill="#F79767" stroke="#f36924" stroke-width="2px"/><text text-anchor="middle" pointer-events="none" font-family="sans-serif" dy="1.5625" font-size="25" fill="#FFFFFF"/><text text-anchor="middle" pointer-events="none" x="0" y="5" font-size="10px" fill="#FFFFFF" font-family="sans-serif"> 0xd297a…</text></g><g class="node" transform="translate(659.5862154439405,149.21364340491434)"><circle class="outline" cx="0" cy="0" r="25" fill="#F79767" stroke="#f36924" stroke-width="2px"/><text text-anchor="middle" pointer-events="none" font-family="sans-serif" dy="1.5625" font-size="25" fill="#FFFFFF"/><text text-anchor="middle" pointer-events="none" x="0" y="5" font-size="10px" fill="#FFFFFF" font-family="sans-serif"> 0xf260c…</text></g><g class="node" transform="translate(415.74229826538175,327.4050541830563)"><circle class="outline" cx="0" cy="0" r="25" fill="#F79767" stroke="#f36924" stroke-width="2px"/><text text-anchor="middle" pointer-events="none" font-family="sans-serif" dy="1.5625" font-size="25" fill="#FFFFFF"/><text text-anchor="middle" pointer-events="none" x="0" y="5" font-size="10px" fill="#FFFFFF" font-family="sans-serif"> 0xcf14e…</text></g><g class="node" transform="translate(585.665525087531,249.59257958825543)"><circle class="outline" cx="0" cy="0" r="25" fill="#F79767" stroke="#f36924" stroke-width="2px"/><text text-anchor="middle" pointer-events="none" font-family="sans-serif" dy="1.5625" font-size="25" fill="#FFFFFF"/><text text-anchor="middle" pointer-events="none" x="0" y="5" font-size="10px" fill="#FFFFFF" font-family="sans-serif"> 0x3b438…</text></g><g class="node" transform="translate(605.5741207062795,306.1749504935119)"><circle class="outline" cx="0" cy="0" r="25" fill="#F79767" stroke="#f36924" stroke-width="2px"/><text text-anchor="middle" pointer-events="none" font-family="sans-serif" dy="1.5625" font-size="25" fill="#FFFFFF"/><text text-anchor="middle" pointer-events="none" x="0" y="5" font-size="10px" fill="#FFFFFF" font-family="sans-serif"> 0x03f1d…</text></g><g class="node" transform="translate(495.64404479167536,63.43793816445019)"><circle class="outline" cx="0" cy="0" r="25" fill="#F79767" stroke="#f36924" stroke-width="2px"/><text text-anchor="middle" pointer-events="none" font-family="sans-serif" dy="1.5625" font-size="25" fill="#FFFFFF"/><text text-anchor="middle" pointer-events="none" x="0" y="5" font-size="10px" fill="#FFFFFF" font-family="sans-serif"> 0x5ecea…</text></g><g class="node" transform="translate(520.7774153098009,1.6968315285087776)"><circle class="outline" cx="0" cy="0" r="25" fill="#F79767" stroke="#f36924" stroke-width="2px"/><text text-anchor="middle" pointer-events="none" font-family="sans-serif" dy="1.5625" font-size="25" fill="#FFFFFF"/><text text-anchor="middle" pointer-events="none" x="0" y="5" font-size="10px" fill="#FFFFFF" font-family="sans-serif"> 0xc1350…</text></g><g class="node" transform="translate(502.4801226385046,352.0940444808215)"><circle class="outline" cx="0" cy="0" r="25" fill="#F79767" stroke="#f36924" stroke-width="2px"/><text text-anchor="middle" pointer-events="none" font-family="sans-serif" dy="1.5625" font-size="25" fill="#FFFFFF"/><text text-anchor="middle" pointer-events="none" x="0" y="5" font-size="10px" fill="#FFFFFF" font-family="sans-serif"> 0x128f3…</text></g><g class="node" transform="translate(418.9745586263122,39.98407549860136)"><circle class="outline" cx="0" cy="0" r="25" fill="#F79767" stroke="#f36924" stroke-width="2px"/><text text-anchor="middle" pointer-events="none" font-family="sans-serif" dy="1.5625" font-size="25" fill="#FFFFFF"/><text text-anchor="middle" pointer-events="none" x="0" y="5" font-size="10px" fill="#FFFFFF" font-family="sans-serif"> 0x53a90…</text></g><g class="node" transform="translate(621.8599084859347,62.296148252736934)"><circle class="outline" cx="0" cy="0" r="25" fill="#F79767" stroke="#f36924" stroke-width="2px"/><text text-anchor="middle" pointer-events="none" font-family="sans-serif" dy="1.5625" font-size="25" fill="#FFFFFF"/><text text-anchor="middle" pointer-events="none" x="0" y="5" font-size="10px" fill="#FFFFFF" font-family="sans-serif"> 0xe43e4…</text></g><g class="node" transform="translate(409.0997777888819,99.15223943752817)"><circle class="outline" cx="0" cy="0" r="25" fill="#F79767" stroke="#f36924" stroke-width="2px"/><text text-anchor="middle" pointer-events="none" font-family="sans-serif" dy="1.5625" font-size="25" fill="#FFFFFF"/><text text-anchor="middle" pointer-events="none" x="0" y="5" font-size="10px" fill="#FFFFFF" font-family="sans-serif"> 0x1ccd2…</text></g><g class="node" transform="translate(468.3232960911886,-17.181331223847295)"><circle class="outline" cx="0" cy="0" r="25" fill="#F79767" stroke="#f36924" stroke-width="2px"/><text text-anchor="middle" pointer-events="none" font-family="sans-serif" dy="1.5625" font-size="25" fill="#FFFFFF"/><text text-anchor="middle" pointer-events="none" x="0" y="5" font-size="10px" fill="#FFFFFF" font-family="sans-serif"> 0x385d8…</text></g><g class="node" transform="translate(350.41092778358984,86.87410930235009)"><circle class="outline" cx="0" cy="0" r="25" fill="#F79767" stroke="#f36924" stroke-width="2px"/><text text-anchor="middle" pointer-events="none" font-family="sans-serif" dy="1.5625" font-size="25" fill="#FFFFFF"/><text text-anchor="middle" pointer-events="none" x="0" y="5" font-size="10px" fill="#FFFFFF" font-family="sans-serif"> 0x115e8…</text></g><g class="node" transform="translate(344.27767929532195,152.2418475717006)"><circle class="outline" cx="0" cy="0" r="25" fill="#F79767" stroke="#f36924" stroke-width="2px"/><text text-anchor="middle" pointer-events="none" font-family="sans-serif" dy="1.5625" font-size="25" fill="#FFFFFF"/><text text-anchor="middle" pointer-events="none" x="0" y="5" font-size="10px" fill="#FFFFFF" font-family="sans-serif"> 0xe68d2…</text></g><g class="node" transform="translate(356.26202991988,211.55834657698162)"><circle class="outline" cx="0" cy="0" r="25" fill="#F79767" stroke="#f36924" stroke-width="2px"/><text text-anchor="middle" pointer-events="none" font-family="sans-serif" dy="1.5625" font-size="25" fill="#FFFFFF"/><text text-anchor="middle" pointer-events="none" x="0" y="5" font-size="10px" fill="#FFFFFF" font-family="sans-serif"> 0x21d96…</text></g><g class="node" transform="translate(-270.9205377157751,210.68184837904835)"><circle class="outline" cx="0" cy="0" r="25" fill="#F79767" stroke="#f36924" stroke-width="2px"/><text text-anchor="middle" pointer-events="none" font-family="sans-serif" dy="1.5625" font-size="25" fill="#FFFFFF"/><text text-anchor="middle" pointer-events="none" x="0" y="5" font-size="10px" fill="#FFFFFF" font-family="sans-serif"> 0xafa90…</text></g><g class="node" transform="translate(-93.22844821407523,115.21392433471007)"><circle class="outline" cx="0" cy="0" r="25" fill="#F79767" stroke="#f36924" stroke-width="2px"/><text text-anchor="middle" pointer-events="none" font-family="sans-serif" dy="1.5625" font-size="25" fill="#FFFFFF"/><text text-anchor="middle" pointer-events="none" x="0" y="5" font-size="10px" fill="#FFFFFF" font-family="sans-serif"> 0xa85ee…</text></g><g class="node" transform="translate(534.0153033537939,-453.9803531052713)"><circle class="outline" cx="0" cy="0" r="25" fill="#F79767" stroke="#f36924" stroke-width="2px"/><text text-anchor="middle" pointer-events="none" font-family="sans-serif" dy="1.5625" font-size="25" fill="#FFFFFF"/><text text-anchor="middle" pointer-events="none" x="0" y="5" font-size="10px" fill="#FFFFFF" font-family="sans-serif"> 0x95106…</text></g><g class="node" transform="translate(622.7093607448181,-395.70129161627324)"><circle class="outline" cx="0" cy="0" r="25" fill="#F79767" stroke="#f36924" stroke-width="2px"/><text text-anchor="middle" pointer-events="none" font-family="sans-serif" dy="1.5625" font-size="25" fill="#FFFFFF"/><text text-anchor="middle" pointer-events="none" x="0" y="5" font-size="10px" fill="#FFFFFF" font-family="sans-serif"> 0x00717…</text></g><g class="node" transform="translate(458.1067291597736,-528.2344573855117)"><circle class="outline" cx="0" cy="0" r="25" fill="#F79767" stroke="#f36924" stroke-width="2px"/><text text-anchor="middle" pointer-events="none" font-family="sans-serif" dy="1.5625" font-size="25" fill="#FFFFFF"/><text text-anchor="middle" pointer-events="none" x="0" y="5" font-size="10px" fill="#FFFFFF" font-family="sans-serif"> 0x1df5c…</text></g><g class="node" transform="translate(-564.4942595548539,216.44536886516116)"><circle class="outline" cx="0" cy="0" r="25" fill="#F79767" stroke="#f36924" stroke-width="2px"/><text text-anchor="middle" pointer-events="none" font-family="sans-serif" dy="1.5625" font-size="25" fill="#FFFFFF"/><text text-anchor="middle" pointer-events="none" x="0" y="5" font-size="10px" fill="#FFFFFF" font-family="sans-serif"> 0x78be4…</text></g><g class="node" transform="translate(-169.9304308754692,-138.97015124256336)"><circle class="outline" cx="0" cy="0" r="25" fill="#F79767" stroke="#f36924" stroke-width="2px"/><text text-anchor="middle" pointer-events="none" font-family="sans-serif" dy="1.5625" font-size="25" fill="#FFFFFF"/><text text-anchor="middle" pointer-events="none" x="0" y="5" font-size="10px" fill="#FFFFFF" font-family="sans-serif"> 0x147af…</text></g><g class="node" transform="translate(-55.80030386787233,-236.12410253191914)"><circle class="outline" cx="0" cy="0" r="25" fill="#F79767" stroke="#f36924" stroke-width="2px"/><text text-anchor="middle" pointer-events="none" font-family="sans-serif" dy="1.5625" font-size="25" fill="#FFFFFF"/><text text-anchor="middle" pointer-events="none" x="0" y="5" font-size="10px" fill="#FFFFFF" font-family="sans-serif"> 0x140e7…</text></g><g class="node" transform="translate(238.7897731748189,-400.57347894413226)"><circle class="outline" cx="0" cy="0" r="25" fill="#F79767" stroke="#f36924" stroke-width="2px"/><text text-anchor="middle" pointer-events="none" font-family="sans-serif" dy="1.5625" font-size="25" fill="#FFFFFF"/><text text-anchor="middle" pointer-events="none" x="0" y="5" font-size="10px" fill="#FFFFFF" font-family="sans-serif"> 0xc350d…</text></g><g class="node" transform="translate(119.39157514005204,-426.57238813176417)"><circle class="outline" cx="0" cy="0" r="25" fill="#F79767" stroke="#f36924" stroke-width="2px"/><text text-anchor="middle" pointer-events="none" font-family="sans-serif" dy="1.5625" font-size="25" fill="#FFFFFF"/><text text-anchor="middle" pointer-events="none" x="0" y="5" font-size="10px" fill="#FFFFFF" font-family="sans-serif"> 0x310d9…</text></g><g class="node" transform="translate(130.78447524023835,-367.6762883477805)"><circle class="outline" cx="0" cy="0" r="25" fill="#F79767" stroke="#f36924" stroke-width="2px"/><text text-anchor="middle" pointer-events="none" font-family="sans-serif" dy="1.5625" font-size="25" fill="#FFFFFF"/><text text-anchor="middle" pointer-events="none" x="0" y="5" font-size="10px" fill="#FFFFFF" font-family="sans-serif"> 0x580f3…</text></g><g class="node" transform="translate(143.12705342581685,-308.9739265268714)"><circle class="outline" cx="0" cy="0" r="25" fill="#F79767" stroke="#f36924" stroke-width="2px"/><text text-anchor="middle" pointer-events="none" font-family="sans-serif" dy="1.5625" font-size="25" fill="#FFFFFF"/><text text-anchor="middle" pointer-events="none" x="0" y="5" font-size="10px" fill="#FFFFFF" font-family="sans-serif"> 0x7ac5f…</text></g><g class="node" transform="translate(-156.4142269574705,-297.63843808102774)"><circle class="outline" cx="0" cy="0" r="25" fill="#F79767" stroke="#f36924" stroke-width="2px"/><text text-anchor="middle" pointer-events="none" font-family="sans-serif" dy="1.5625" font-size="25" fill="#FFFFFF"/><text text-anchor="middle" pointer-events="none" x="0" y="5" font-size="10px" fill="#FFFFFF" font-family="sans-serif"> 0x1ce45…</text></g><g class="node" transform="translate(6.326713793568381,-339.2264473534915)"><circle class="outline" cx="0" cy="0" r="25" fill="#F79767" stroke="#f36924" stroke-width="2px"/><text text-anchor="middle" pointer-events="none" font-family="sans-serif" dy="1.5625" font-size="25" fill="#FFFFFF"/><text text-anchor="middle" pointer-events="none" x="0" y="5" font-size="10px" fill="#FFFFFF" font-family="sans-serif"> 0xec9f6…</text></g><g class="node" transform="translate(-116.67854103326788,-413.5102862725402)"><circle class="outline" cx="0" cy="0" r="25" fill="#F79767" stroke="#f36924" stroke-width="2px"/><text text-anchor="middle" pointer-events="none" font-family="sans-serif" dy="1.5625" font-size="25" fill="#FFFFFF"/><text text-anchor="middle" pointer-events="none" x="0" y="5" font-size="10px" fill="#FFFFFF" font-family="sans-serif"> 0x2ee4b…</text></g><g class="node" transform="translate(-231.02187536727794,-475.96026312769914)"><circle class="outline" cx="0" cy="0" r="25" fill="#F79767" stroke="#f36924" stroke-width="2px"/><text text-anchor="middle" pointer-events="none" font-family="sans-serif" dy="1.5625" font-size="25" fill="#FFFFFF"/><text text-anchor="middle" pointer-events="none" x="0" y="5" font-size="10px" fill="#FFFFFF" font-family="sans-serif"> 0xfbb1b…</text></g><g class="node" transform="translate(-340.7692366177163,-492.3659133197764)"><circle class="outline" cx="0" cy="0" r="25" fill="#F79767" stroke="#f36924" stroke-width="2px"/><text text-anchor="middle" pointer-events="none" font-family="sans-serif" dy="1.5625" font-size="25" fill="#FFFFFF"/><text text-anchor="middle" pointer-events="none" x="0" y="5" font-size="10px" fill="#FFFFFF" font-family="sans-serif"> 0x68d82…</text></g><g class="node" transform="translate(-39.92367514741348,-450.1604239686588)"><circle class="outline" cx="0" cy="0" r="25" fill="#F79767" stroke="#f36924" stroke-width="2px"/><text text-anchor="middle" pointer-events="none" font-family="sans-serif" dy="1.5625" font-size="25" fill="#FFFFFF"/><text text-anchor="middle" pointer-events="none" x="0" y="5" font-size="10px" fill="#FFFFFF" font-family="sans-serif"> 0x6bb74…</text></g><g class="node" transform="translate(73.20251616103442,-596.9261446619153)"><circle class="outline" cx="0" cy="0" r="25" fill="#F79767" stroke="#f36924" stroke-width="2px"/><text text-anchor="middle" pointer-events="none" font-family="sans-serif" dy="1.5625" font-size="25" fill="#FFFFFF"/><text text-anchor="middle" pointer-events="none" x="0" y="5" font-size="10px" fill="#FFFFFF" font-family="sans-serif"> 0xad7f8…</text></g><g class="node" transform="translate(37.36541981892236,-475.1972405746896)"><circle class="outline" cx="0" cy="0" r="25" fill="#F79767" stroke="#f36924" stroke-width="2px"/><text text-anchor="middle" pointer-events="none" font-family="sans-serif" dy="1.5625" font-size="25" fill="#FFFFFF"/><text text-anchor="middle" pointer-events="none" x="0" y="5" font-size="10px" fill="#FFFFFF" font-family="sans-serif"> 0x92336…</text></g><g class="node" transform="translate(-111.55830376254487,-258.23328140217654)"><circle class="outline" cx="0" cy="0" r="25" fill="#F79767" stroke="#f36924" stroke-width="2px"/><text text-anchor="middle" pointer-events="none" font-family="sans-serif" dy="1.5625" font-size="25" fill="#FFFFFF"/><text text-anchor="middle" pointer-events="none" x="0" y="5" font-size="10px" fill="#FFFFFF" font-family="sans-serif"> 0xcaac4…</text></g><g class="node" transform="translate(-32.96492692378227,-180.7841949093504)"><circle class="outline" cx="0" cy="0" r="25" fill="#F79767" stroke="#f36924" stroke-width="2px"/><text text-anchor="middle" pointer-events="none" font-family="sans-serif" dy="1.5625" font-size="25" fill="#FFFFFF"/><text text-anchor="middle" pointer-events="none" x="0" y="5" font-size="10px" fill="#FFFFFF" font-family="sans-serif"> 0x45d01…</text></g><g class="node" transform="translate(-493.14419458354666,-308.13402351961184)"><circle class="outline" cx="0" cy="0" r="25" fill="#F79767" stroke="#f36924" stroke-width="2px"/><text text-anchor="middle" pointer-events="none" font-family="sans-serif" dy="1.5625" font-size="25" fill="#FFFFFF"/><text text-anchor="middle" pointer-events="none" x="0" y="5" font-size="10px" fill="#FFFFFF" font-family="sans-serif"> 0x00995…</text></g><g class="node" transform="translate(-543.8009384400691,-217.07512993373726)"><circle class="outline" cx="0" cy="0" r="25" fill="#F79767" stroke="#f36924" stroke-width="2px"/><text text-anchor="middle" pointer-events="none" font-family="sans-serif" dy="1.5625" font-size="25" fill="#FFFFFF"/><text text-anchor="middle" pointer-events="none" x="0" y="5" font-size="10px" fill="#FFFFFF" font-family="sans-serif"> 0xe8df9…</text></g><g class="node" transform="translate(-344.2809587528908,405.5467632440963)"><circle class="outline" cx="0" cy="0" r="25" fill="#F79767" stroke="#f36924" stroke-width="2px"/><text text-anchor="middle" pointer-events="none" font-family="sans-serif" dy="1.5625" font-size="25" fill="#FFFFFF"/><text text-anchor="middle" pointer-events="none" x="0" y="5" font-size="10px" fill="#FFFFFF" font-family="sans-serif"> 0x6e395…</text></g><g class="node" transform="translate(-435.66548908455314,-70.08584272971049)"><circle class="outline" cx="0" cy="0" r="25" fill="#F79767" stroke="#f36924" stroke-width="2px"/><text text-anchor="middle" pointer-events="none" font-family="sans-serif" dy="1.5625" font-size="25" fill="#FFFFFF"/><text text-anchor="middle" pointer-events="none" x="0" y="5" font-size="10px" fill="#FFFFFF" font-family="sans-serif"> 0xe9d3d…</text></g><g class="node" transform="translate(-116.17245993091029,227.65062287652103)"><circle class="outline" cx="0" cy="0" r="25" fill="#F79767" stroke="#f36924" stroke-width="2px"/><text text-anchor="middle" pointer-events="none" font-family="sans-serif" dy="1.5625" font-size="25" fill="#FFFFFF"/><text text-anchor="middle" pointer-events="none" x="0" y="5" font-size="10px" fill="#FFFFFF" font-family="sans-serif"> 0xab8d8…</text></g><g class="node" transform="translate(-224.60468956955498,34.20909537512554)"><circle class="outline" cx="0" cy="0" r="25" fill="#F79767" stroke="#f36924" stroke-width="2px"/><text text-anchor="middle" pointer-events="none" font-family="sans-serif" dy="1.5625" font-size="25" fill="#FFFFFF"/><text text-anchor="middle" pointer-events="none" x="0" y="5" font-size="10px" fill="#FFFFFF" font-family="sans-serif"> 0xf9dff3…</text></g><g class="node" transform="translate(-238.07268779705345,348.76044472178273)"><circle class="outline" cx="0" cy="0" r="25" fill="#F79767" stroke="#f36924" stroke-width="2px"/><text text-anchor="middle" pointer-events="none" font-family="sans-serif" dy="1.5625" font-size="25" fill="#FFFFFF"/><text text-anchor="middle" pointer-events="none" x="0" y="5" font-size="10px" fill="#FFFFFF" font-family="sans-serif"> 0x9a63d…</text></g></g></svg>